<?xml version="1.0" encoding="UTF-8"?>
<svg version="1.1" xmlns="http://www.w3.org/2000/svg" width="3464" height="3464">
<path d="M0 0 C2.743168 0.00546341 5.48632733 0.0078143 8.22949982 0.00987244 C35.48502292 0.04169722 62.59594317 0.53917508 89.75086212 3.0900116 C92.210279 3.3198297 94.67046467 3.5389248 97.13105011 3.75584412 C183.10450395 11.42005538 268.46181965 31.19399513 431.23603058 106.59764099 C433.26140229 107.77743341 435.29024067 108.95128867 437.32196808 110.12010193 C467.97130373 127.75731752 497.28870595 147.59440479 525.18915558 169.31785583 C526.18302277 170.09105164 526.18302277 170.09105164 527.19696808 170.87986755 C533.26631555 175.60869929 539.29596036 180.37004576 545.18915558 185.31785583 C549.07789653 183.54606977 552.53353978 181.15505433 556.06024933 178.76707458 C557.4426276 177.83771366 558.82511906 176.90852106 560.20771027 175.97947693 C560.92906158 175.49372192 561.6504129 175.00796692 562.39362335 174.50749207 C582.53398855 160.95928981 602.95486667 148.09368798 624.18915558 136.31785583 C625.74086456 135.45571472 625.74086456 135.45571472 627.3239212 134.57615662 C656.02642689 118.71132839 685.61499732 105.15956442 716.18915558 93.31785583 C717.12120819 92.95560913 717.12120819 92.95560913 718.07209015 92.58604431 C791.57190048 64.06481193 870.1040695 48.13852825 948.65009308 42.69676208 C949.57941525 42.63223721 950.50873741 42.56771233 951.46622086 42.50123215 C972.7552867 41.05928199 994.00659927 40.84211009 1015.33728027 40.93133545 C1018.37443523 40.94308911 1021.41156557 40.94957778 1024.4487381 40.9549408 C1053.92382319 41.01571188 1083.285377 41.4363036 1112.66022491 44.0900116 C1115.20606012 44.31937885 1117.75261966 44.53850112 1120.29950714 44.75584412 C1202.47264813 51.86016878 1284.19948745 68.66827064 1393.18915558 112.31785583 C1394.25827179 112.79561462 1395.327388 113.27337341 1396.42890167 113.76560974 C1447.02362213 136.45359479 1494.70982908 165.48445354 1537.44794464 200.88084412 C1539.97073278 202.96288716 1542.52007328 205.01192378 1545.06415558 207.06785583 C1549.44676607 210.65542004 1553.67237472 214.38887376 1557.85712433 218.20457458 C1559.93950294 220.0916212 1562.05418622 221.92843816 1564.18915558 223.75535583 C1568.24044377 227.27572924 1571.97252432 231.0844563 1575.73993683 234.90379333 C1577.88670093 237.01974264 1580.07818179 238.99559951 1582.37665558 240.94285583 C1584.94350321 243.13520067 1587.19073211 245.38611678 1589.36493683 247.96629333 C1593.41346614 252.65236513 1597.77545065 256.97820636 1602.18915558 261.31785583 C1607.19999301 266.24461881 1612.07142284 271.20386802 1616.6520462 276.53562927 C1618.68712406 278.89523352 1620.81429214 281.16412297 1622.93915558 283.44285583 C1627.2320351 288.14551022 1631.19492597 293.03047135 1635.08930206 298.06565857 C1637.97422623 301.79204002 1640.94162685 305.41946292 1644.00165558 309.00535583 C1650.22496001 316.41593615 1655.88242902 324.23899576 1661.55976105 332.0712738 C1662.98352401 334.03433445 1664.41496387 335.99143511 1665.84931183 337.94676208 C1712.67368347 402.14586043 1746.91479389 477.28704138 1776.18915558 617.31785583 C1776.27209869 617.9678656 1776.35504181 618.61787537 1776.44049835 619.2875824 C1778.77351672 637.69214453 1780.48031685 656.1024091 1781.43915558 674.63035583 C1781.48026459 675.3872168 1781.5213736 676.14407776 1781.56372833 676.9238739 C1782.43316012 693.40084187 1782.18915558 709.79170263 1782.18915558 726.31785583 C1694.40915558 726.31785583 1606.62915558 726.31785583 1516.18915558 726.31785583 C1515.69415558 707.01285583 1515.69415558 707.01285583 1515.18915558 687.31785583 C1510.92651916 611.2461906 1492.56568409 536.61226019 1452.18915558 471.31785583 C1451.59876495 470.35363708 1451.00837433 469.38941833 1450.40009308 468.39598083 C1448.70183738 465.67555227 1446.95959944 462.99188723 1445.18915558 460.31785583 C1444.81242706 459.74809021 1444.43569855 459.17832458 1444.04755402 458.59129333 C1433.20427009 442.27944529 1421.08500181 427.04495078 1408.18915558 412.31785583 C1407.52271027 411.53926208 1406.85626495 410.76066833 1406.16962433 409.95848083 C1402.06465989 405.17707756 1397.68310489 400.73250016 1393.18915558 396.31785583 C1390.52192556 393.66387365 1387.87119877 390.99558979 1385.24384308 388.30223083 C1378.56173767 381.48167967 1371.72563304 375.20067998 1364.18915558 369.31785583 C1362.8953256 368.27334883 1361.60242498 367.22768999 1360.31024933 366.18113708 C1327.44140303 339.80035445 1289.65910039 319.83677286 1250.18915558 305.31785583 C1249.46180206 305.04425232 1248.73444855 304.7706488 1247.98505402 304.48875427 C1192.03382714 283.44385629 1131.61559368 274.0379237 1072.18915558 270.31785583 C1071.53768555 270.27475281 1070.88621552 270.23164978 1070.21500397 270.1872406 C1053.36780749 269.09673483 1036.50184537 269.07400328 1019.62665558 269.06785583 C1018.51277718 269.06697212 1018.51277718 269.06697212 1017.37639618 269.06607056 C994.83175602 269.05346875 972.58754287 269.52874508 950.18915558 272.31785583 C948.86041846 272.47098336 947.53147303 272.62231261 946.20233917 272.7719574 C862.49793526 282.21007944 779.50683847 311.37859186 711.18915558 361.31785583 C711.82893269 365.27603078 713.78164715 368.01264209 715.98603058 371.31394958 C716.56365395 372.18540367 716.56365395 372.18540367 717.15294647 373.07446289 C717.98017008 374.32191712 718.80977404 375.56779552 719.64151764 376.8122406 C721.83400694 380.09532845 724.0051544 383.39247097 726.17743683 386.68894958 C726.82749443 387.67440262 726.82749443 387.67440262 727.49068451 388.67976379 C737.69927186 404.18093506 747.15965656 420.10507047 756.18915558 436.31785583 C756.93818146 437.6592865 756.93818146 437.6592865 757.70233917 439.02781677 C798.61965532 512.60846126 828.43498851 591.41626478 852.18915558 683.31785583 C852.36835541 684.02263062 852.54755524 684.7274054 852.73218536 685.45353699 C855.07523615 694.70094191 857.20030966 703.98829666 859.18915558 713.31785583 C859.36964447 714.16315857 859.55013336 715.0084613 859.73609161 715.87937927 C875.38900932 789.45708375 884.7933008 863.848402 888.87665558 938.94285583 C888.9680632 940.60589752 888.9680632 940.60589752 889.06131744 942.30253601 C890.86191512 975.58927735 891.3518033 1008.86139823 891.35641265 1042.18967366 C891.35713807 1045.15927191 891.35929948 1048.1288659 891.36190987 1051.09846306 C891.37108921 1061.57971859 891.37525486 1072.06096165 891.37445831 1082.54222107 C891.37392764 1091.05981847 891.38094997 1099.57736976 891.39496613 1108.09495544 C891.52667893 1190.05017061 891.52667893 1190.05017061 890.29071808 1224.98973083 C890.25097052 1226.11466005 890.21122295 1227.23958927 890.17027092 1228.39860725 C887.43273142 1302.88570544 879.29406497 1377.12414498 865.18915558 1450.31785583 C864.93228973 1451.65115936 864.93228973 1451.65115936 864.67023468 1453.01139832 C848.95012871 1534.1900551 824.78448813 1614.13081394 790.18915558 1689.31785583 C789.89696136 1689.95360535 789.60476715 1690.58935486 789.30371857 1691.24436951 C777.28373246 1717.37267511 764.48619845 1742.78037986 749.82050323 1767.54295349 C748.33199429 1770.07488894 746.86863839 1772.61863715 745.41962433 1775.17332458 C737.83098912 1788.53739376 729.55515555 1801.43191171 721.18915558 1814.31785583 C721.79855988 1814.61498474 722.40796417 1814.91211365 723.03583527 1815.21824646 C725.65810339 1816.5573276 728.00578463 1818.1593572 730.43915558 1819.81785583 C737.90886213 1824.83699037 745.52714925 1829.5988718 753.18915558 1834.31785583 C753.79066437 1834.69023376 754.39217316 1835.06261169 755.01190948 1835.4462738 C791.93678912 1858.24889861 831.32268832 1874.82140784 873.08271027 1886.45213318 C875.0726594 1887.00670404 877.06052512 1887.56884005 879.04560089 1888.14060974 C916.61869057 1898.96075065 956.16826884 1903.42813112 995.12665558 1904.94285583 C996.15428009 1904.98297791 997.1819046 1905.02309998 998.24066925 1905.06443787 C1015.51445596 1905.64925231 1032.73978148 1905.25234801 1050.00165558 1904.50535583 C1051.54460297 1904.43908493 1051.54460297 1904.43908493 1053.11872101 1904.37147522 C1070.2251767 1903.62150845 1087.19387911 1902.47145918 1104.18915558 1900.31785583 C1104.85334503 1900.23513428 1105.51753448 1900.15241272 1106.20185089 1900.06718445 C1156.19744837 1893.83088227 1204.751471 1882.16462988 1251.18915558 1862.31785583 C1251.96420441 1861.99349548 1252.73925323 1861.66913513 1253.53778839 1861.33494568 C1289.87436805 1846.12776421 1324.06429367 1823.90775378 1353.04853058 1797.27488708 C1354.97687401 1795.51193077 1356.94543548 1793.81831634 1358.93915558 1792.13035583 C1367.3417344 1784.8059083 1375.35583031 1776.73247664 1382.56024933 1768.22801208 C1384.51153274 1765.93981643 1386.53733245 1763.72686523 1388.56415558 1761.50535583 C1396.95170799 1752.19531458 1404.67049255 1742.33654074 1412.18915558 1732.31785583 C1412.66836456 1731.68057556 1413.14757355 1731.04329529 1413.64130402 1730.38670349 C1442.49127262 1691.79870341 1465.86423366 1648.66213666 1482.18915558 1603.31785583 C1482.42871979 1602.65501587 1482.668284 1601.9921759 1482.91510773 1601.30924988 C1500.98058233 1551.16269797 1509.26770481 1501.3823117 1516.18915558 1448.31785583 C1603.96915558 1448.31785583 1691.74915558 1448.31785583 1782.18915558 1448.31785583 C1779.7911496 1475.8949246 1779.7911496 1475.8949246 1778.00165558 1489.31785583 C1777.89755371 1490.10624847 1777.79345184 1490.89464111 1777.68619537 1491.70692444 C1773.94497652 1519.8185552 1768.77714678 1547.73456909 1762.18915558 1575.31785583 C1761.92667023 1576.43063904 1761.66418488 1577.54342224 1761.39374542 1578.68992615 C1749.4035699 1629.24193779 1732.02726404 1678.20672773 1710.18915558 1725.31785583 C1709.6770755 1726.42322693 1709.16499542 1727.52859802 1708.63739777 1728.66746521 C1694.01450707 1760.05731032 1676.84954534 1790.39413792 1657.60761261 1819.19090271 C1656.26782108 1821.1998982 1654.9428078 1823.21773244 1653.62274933 1825.23973083 C1647.12334352 1835.15769729 1640.21045357 1844.76425187 1633.18915558 1854.31785583 C1632.68094269 1855.0105658 1632.1727298 1855.70327576 1631.64911652 1856.41697693 C1624.58329287 1866.02143363 1617.21912592 1875.34585238 1609.64081573 1884.55027771 C1608.36191492 1886.1074997 1607.09309309 1887.67298764 1605.82587433 1889.23973083 C1596.72822962 1900.48288956 1587.22973656 1911.35514027 1577.29779816 1921.86766052 C1574.14979199 1925.20067652 1571.06483588 1928.57649549 1568.02118683 1932.00535583 C1563.0907316 1937.49990181 1557.92486623 1942.73376953 1552.69574738 1947.94163513 C1551.12141403 1949.51057944 1549.55253968 1951.08484142 1547.98407745 1952.65965271 C1542.55772011 1958.08996216 1537.04310013 1963.34647918 1531.18915558 1968.31785583 C1529.9973201 1969.36275936 1528.80720013 1970.40962302 1527.61884308 1971.45848083 C1519.35366526 1978.70475875 1510.91833158 1985.63980949 1502.18915558 1992.31785583 C1501.11335236 1993.14857605 1501.11335236 1993.14857605 1500.01581573 1993.99607849 C1443.69039193 2037.42327827 1379.65900412 2069.3337301 1312.18915558 2091.31785583 C1311.08426788 2091.68539978 1309.97938019 2092.05294373 1308.84101105 2092.43162537 C1234.00256859 2117.2538983 1154.72402676 2128.37930736 1076.18915558 2132.31785583 C1075.12342316 2132.37570251 1074.05769073 2132.43354919 1072.95966339 2132.4931488 C988.42911739 2136.9707964 902.77580704 2131.09918201 820.18915558 2112.31785583 C819.4441983 2112.14896851 818.69924103 2111.98008118 817.93170929 2111.80607605 C783.0253971 2103.85431654 748.45920347 2093.57059244 715.18915558 2080.31785583 C714.02706573 2079.8555658 712.86497589 2079.39327576 711.6676712 2078.91697693 C657.82070028 2057.34505639 606.76808644 2030.56961547 559.18915558 1997.31785583 C555.39194475 1999.10695557 552.45627086 2001.50980438 549.31415558 2004.25535583 C542.43471546 2010.1624061 535.3646366 2015.77631168 528.18915558 2021.31785583 C527.41007843 2021.92290955 526.63100128 2022.52796326 525.82831573 2023.15135193 C514.39348452 2032.02202227 502.80839639 2040.55231218 490.77313995 2048.59031677 C487.9422874 2050.48290111 485.12042147 2052.38850044 482.29853058 2054.29441833 C470.44152895 2062.27922644 458.49665943 2070.0451148 446.18915558 2077.31785583 C445.44423859 2077.75903748 444.69932159 2078.20021912 443.93183136 2078.6547699 C426.80679948 2088.76337136 409.41719792 2098.48568478 391.52558136 2107.17625427 C388.83173889 2108.49249329 386.14984194 2109.83190759 383.46649933 2111.16941833 C311.9618165 2146.51844502 234.65070894 2169.08927599 8.65155792 2192.57859802 C4.21013967 2192.56722227 -0.23103813 2192.57398716 -4.67244816 2192.5854826 C-38.28712414 2192.6589707 -71.86600933 2191.31765051 -105.34600067 2188.21629333 C-106.10469955 2188.14655304 -106.86339844 2188.07681274 -107.6450882 2188.00495911 C-194.17857487 2179.91864717 -280.08265649 2162.03207775 -411.81084442 2107.31785583 C-413.18297089 2106.65559998 -413.18297089 2106.65559998 -414.58281708 2105.97996521 C-453.03891206 2087.3354537 -489.57898197 2064.89379469 -523.81084442 2039.31785583 C-524.38898895 2038.8860199 -524.96713348 2038.45418396 -525.56279755 2038.00926208 C-543.84501566 2024.28156147 -561.3529166 2009.54096777 -578.05181122 1993.93333435 C-579.31949653 1992.76910483 -580.60145871 1991.62035319 -581.89214325 1990.48167419 C-589.20710698 1984.01723485 -596.10818573 1977.17290625 -602.99810028 1970.26097107 C-605.00161429 1968.25207719 -607.01044594 1966.24861194 -609.0198288 1964.24559021 C-615.16510103 1958.10350842 -621.18667205 1951.94623754 -626.81084442 1945.31785583 C-628.58449603 1943.36311252 -630.38670497 1941.4368644 -632.18584442 1939.50535583 C-636.45479636 1934.88486034 -640.49115736 1930.12678832 -644.43584442 1925.22410583 C-646.64881187 1922.51613251 -648.9126104 1919.86561966 -651.20366669 1917.22410583 C-656.8911453 1910.66557193 -662.31011419 1903.9668453 -667.52471161 1897.02488708 C-668.85336362 1895.26142185 -670.19452853 1893.50800614 -671.53740692 1891.75535583 C-684.88834684 1874.2482063 -697.30980546 1856.08951785 -708.81084442 1837.31785583 C-709.41485077 1836.3372821 -709.41485077 1836.3372821 -710.03105927 1835.3368988 C-754.82771973 1762.45091337 -784.77716279 1681.85833542 -806.56084442 1537.31785583 C-806.62001038 1536.60915344 -806.67917633 1535.90045105 -806.74013519 1535.17027283 C-808.29270411 1516.22034515 -809.01449292 1497.2697669 -809.0510788 1478.25730896 C-809.06094898 1475.1600466 -809.09220788 1472.06340609 -809.12334442 1468.96629333 C-809.12986349 1466.95588049 -809.13511824 1464.94546306 -809.13896942 1462.93504333 C-809.15131622 1462.02962799 -809.16366302 1461.12421265 -809.17638397 1460.19136047 C-809.13521351 1448.22387962 -805.30440611 1435.10429896 -796.81084442 1426.31785583 C-796.15084442 1426.31785583 -795.49084442 1426.31785583 -794.81084442 1426.31785583 C-794.48084442 1425.32785583 -794.15084442 1424.33785583 -793.81084442 1423.31785583 C-781.99718565 1413.92359951 -769.47700259 1411.16516198 -754.77469635 1411.17741394 C-753.65984881 1411.17444282 -752.54500127 1411.1714717 -751.39637047 1411.16841054 C-747.65878843 1411.15973552 -743.92123847 1411.15821629 -740.18364716 1411.15672302 C-737.50438029 1411.15209396 -734.82511631 1411.14708956 -732.14585114 1411.14167786 C-724.8645757 1411.12811531 -717.58330579 1411.12207284 -710.30201983 1411.1176672 C-705.751316 1411.11490083 -701.20061428 1411.11066272 -696.64991188 1411.10616302 C-684.03865028 1411.09397227 -671.42739037 1411.08367309 -658.81612301 1411.08028793 C-657.60615633 1411.07995858 -657.60615633 1411.07995858 -656.37174589 1411.07962258 C-655.15895662 1411.07929517 -655.15895662 1411.07929517 -653.92166656 1411.07896113 C-652.28340749 1411.07851768 -650.64514842 1411.07807111 -649.00688934 1411.07762146 C-648.19426394 1411.07740003 -647.38163854 1411.0771786 -646.54438812 1411.07695046 C-633.38767842 1411.07300551 -620.23102421 1411.05555989 -607.07433593 1411.03226194 C-593.5512226 1411.00850941 -580.02813707 1410.99608428 -566.50500256 1410.99492002 C-558.9185131 1410.99400536 -551.33209592 1410.98830616 -543.74562645 1410.9701004 C-537.2833112 1410.95464655 -530.82109058 1410.94960989 -524.35876035 1410.95783851 C-521.06596839 1410.96172665 -517.77340508 1410.95925049 -514.48062897 1410.94678116 C-494.01709986 1410.87385765 -476.55081906 1411.28980832 -460.81084442 1426.13035583 C-451.41409352 1436.40805214 -448.25772552 1449.27951331 -448.08818817 1462.86863708 C-448.05779449 1464.0333403 -448.02740082 1465.19804352 -447.99608612 1466.39804077 C-447.93231696 1468.86946563 -447.87603969 1471.34109382 -447.82680511 1473.81285095 C-447.69462206 1480.24421719 -447.49440489 1486.67342494 -447.29521942 1493.10301208 C-447.25720718 1494.3558902 -447.21919495 1495.60876831 -447.18003082 1496.89961243 C-444.81103099 1571.19364264 -422.57847586 1643.74997114 -380.81084442 1705.31785583 C-380.36885712 1705.96979919 -379.92686981 1706.62174255 -379.47148895 1707.29344177 C-372.79029581 1717.06608899 -365.3967991 1726.23718713 -357.81084442 1735.31785583 C-357.00864471 1736.27885193 -357.00864471 1736.27885193 -356.19023895 1737.25926208 C-350.75936145 1743.73972112 -345.32500157 1750.08104225 -339.13896942 1755.86473083 C-337.81084442 1757.31785583 -337.81084442 1757.31785583 -337.81084442 1759.31785583 C-337.25525848 1759.54344177 -336.69967255 1759.76902771 -336.12725067 1760.00144958 C-333.12644123 1761.70679998 -331.13146905 1763.884919 -328.74834442 1766.38035583 C-323.44111403 1771.82040069 -317.79954314 1776.63176053 -311.81084442 1781.31785583 C-310.83760223 1782.09644958 -309.86436005 1782.87504333 -308.86162567 1783.67723083 C-294.69787305 1794.83762813 -279.50464628 1804.46628268 -263.81084442 1813.31785583 C-263.18017059 1813.6791156 -262.54949677 1814.04037537 -261.89971161 1814.4125824 C-217.46233293 1839.71623797 -166.84041265 1852.82097032 -116.81084442 1861.31785583 C-115.59783661 1861.5239447 -114.3848288 1861.73003357 -113.13506317 1861.94236755 C-83.49720014 1866.83500786 -52.85496472 1869.92860215 -22.81084442 1870.31785583 C-22.15199249 1870.32774536 -21.49314056 1870.33763489 -20.81432343 1870.3478241 C74.02199439 1871.74887277 167.26205985 1856.69095928 312.18915558 1765.31785583 C312.79614288 1764.82591736 313.40313019 1764.33397888 314.02851105 1763.82713318 C315.86090258 1762.333455 317.68316403 1760.82841347 319.50165558 1759.31785583 C320.33865997 1758.6320343 320.33865997 1758.6320343 321.19257355 1757.93235779 C323.7754266 1755.75906095 325.09966927 1754.58631476 326.18915558 1751.31785583 C325.3085018 1749.20267258 325.3085018 1749.20267258 323.86493683 1746.98582458 C323.3371463 1746.11675476 322.80935577 1745.24768494 322.26557159 1744.35227966 C321.68347931 1743.4127948 321.10138702 1742.47330994 320.50165558 1741.50535583 C319.28520204 1739.49409329 318.07173247 1737.48102339 316.86103058 1735.46629333 C316.24292511 1734.43858826 315.62481964 1733.41088318 314.9879837 1732.35203552 C310.12752496 1724.15363958 305.66367316 1715.73106229 301.18915558 1707.31785583 C300.64146515 1706.29095642 300.09377472 1705.26405701 299.52948761 1704.20603943 C258.40493199 1626.82616943 230.29423983 1543.53579555 202.18915558 1412.31785583 C202.03746918 1411.47988464 201.88578278 1410.64191345 201.72949982 1409.77854919 C191.10071635 1350.74213834 184.92694903 1290.72958588 182.30221653 1230.81075668 C182.22788398 1229.17178524 182.14937879 1227.53299675 182.06633663 1225.89444351 C180.85697337 1201.89558202 181.02453983 1177.87544355 181.02189851 1153.85330939 C181.02117971 1150.16809236 181.01902993 1146.48287887 181.01640129 1142.79766273 C181.00718842 1129.85460302 181.00306082 1116.91155349 181.00385284 1103.9684906 C181.00445084 1092.04629 180.99394318 1080.12413505 180.97810918 1068.20194596 C180.96487232 1057.85341998 180.95967567 1047.50490861 180.96030825 1037.15637428 C180.96055879 1031.02624733 180.95796266 1024.89616095 180.9471302 1018.76604271 C180.88179946 979.04461888 181.85767245 939.42642537 185.00165558 899.81785583 C185.08563599 898.73606049 185.16961639 897.65426514 185.25614166 896.53968811 C192.74942167 800.46188334 209.36099677 705.2455035 311.88910675 447.11375427 C312.33230255 446.3728656 312.77549835 445.63197693 313.23212433 444.86863708 C313.80483063 443.93531555 313.80483063 443.93531555 314.38910675 442.98313904 C315.40567791 441.17508582 315.40567791 441.17508582 315.18915558 438.31785583 C313.83729181 436.74716545 313.83729181 436.74716545 311.93915558 435.25535583 C311.20052277 434.6378949 310.46188995 434.02043396 309.70087433 433.38426208 C308.87200714 432.70234802 308.04313995 432.02043396 307.18915558 431.31785583 C306.32935089 430.58437927 305.4695462 429.85090271 304.58368683 429.09519958 C280.35887748 408.54587855 254.12333303 390.44120402 226.18915558 375.31785583 C225.45761261 374.91856873 224.72606964 374.51928162 223.9723587 374.1078949 C196.55467654 359.18773736 167.39021736 347.32492802 137.18915558 339.31785583 C136.16161163 339.04521912 135.13406769 338.7725824 134.07538605 338.49168396 C108.01360819 331.68735876 81.11921709 326.03193939 54.18915558 324.31785583 C53.55749481 324.27616272 52.92583405 324.2344696 52.27503204 324.19151306 C-42.41882234 317.94347783 -140.44866553 326.9283689 -297.42705536 415.71141052 C-303.89889202 421.39163671 -310.01887889 427.43669156 -316.12334442 433.50535583 C-316.78141083 434.15866882 -317.43947723 434.81198181 -318.11748505 435.48509216 C-322.55047801 439.93321289 -326.71840963 444.55647122 -330.81084442 449.31785583 C-331.76051392 450.40063436 -332.71098793 451.48270799 -333.66240692 452.56394958 C-355.50630179 477.6029914 -373.93952813 505.16565351 -389.81084442 534.31785583 C-390.23333466 535.08903748 -390.65582489 535.86021912 -391.09111786 536.6547699 C-422.3448353 593.9798864 -439.03707164 657.22405414 -446.57604218 721.7681427 C-446.82381505 723.8888865 -447.07720939 726.00890223 -447.33135223 728.12889099 C-447.64438968 730.74200247 -447.93173277 733.353594 -448.20439911 735.97166443 C-449.866962 750.2119613 -454.98745068 761.98209104 -466.24834442 771.13035583 C-477.03571861 779.00714002 -488.26743993 781.78667109 -501.54438019 781.69207764 C-502.67378365 781.69605204 -503.80318712 781.70002645 -504.96681494 781.70412129 C-508.72363081 781.71368951 -512.48006494 781.70195908 -516.23686981 781.69017029 C-518.94145034 781.69094233 -521.64601805 781.6962053 -524.35059357 781.70123291 C-530.9171288 781.7106878 -537.48355361 781.70415036 -544.0500806 781.69196997 C-551.70598662 781.67830151 -559.36186679 781.67999207 -567.01778191 781.6821033 C-580.68230514 781.6852883 -594.34677613 781.67365322 -608.01128387 781.65403748 C-621.25446412 781.6350317 -634.49758316 781.62795153 -647.74077606 781.63352966 C-662.18193958 781.63959445 -676.62307624 781.63939785 -691.06423753 781.62804383 C-692.60554564 781.62683661 -694.14685374 781.62563062 -695.68816185 781.62442589 C-696.4464043 781.62382235 -697.20464675 781.62321881 -697.98586624 781.62259698 C-703.3158096 781.61872624 -708.64574294 781.61910817 -713.97568703 781.62101173 C-720.47492691 781.62313902 -726.97411334 781.61786919 -733.47333819 781.60339818 C-736.78600653 781.59618018 -740.09853244 781.59313292 -743.41121674 781.59664154 C-747.00899405 781.59987357 -750.60653887 781.59075551 -754.2042923 781.57855225 C-755.2415623 781.58233157 -756.27883229 781.58611089 -757.34753472 781.59000474 C-769.87080764 781.51505876 -780.63847532 778.83656343 -790.81084442 771.31785583 C-791.64035614 770.72424255 -791.64035614 770.72424255 -792.48662567 770.11863708 C-801.96473828 762.78413309 -806.77555093 751.86080386 -808.81084442 740.31785583 C-809.68561146 727.67411632 -807.76190525 715.02952245 -806.24834442 702.50535583 C-806.11490631 701.38625824 -805.9814682 700.26716064 -805.84398651 699.114151 C-795.71100333 614.62839853 -774.2120683 532.73649218 -707.81084442 388.31785583 C-707.34001434 387.47416443 -706.86918427 386.63047302 -706.38408661 385.76121521 C-687.14745013 351.29612423 -665.50032482 318.20525452 -641.19316864 287.0947113 C-639.62045064 285.07312147 -638.06121504 283.04147555 -636.50225067 281.00926208 C-630.06082999 272.6354152 -623.47787616 264.45025149 -616.54131317 256.48191833 C-614.06066616 253.62792403 -611.67788008 250.70458877 -609.31084442 247.75535583 C-604.57409886 241.92617166 -599.49003176 236.45506565 -594.35918427 230.9750824 C-591.83001464 228.26804938 -589.32157047 225.54198128 -586.81084442 222.81785583 C-585.80955564 221.73451021 -584.80825354 220.65117689 -583.80693817 219.56785583 C-581.81249141 217.40790828 -579.82630609 215.24077256 -577.84600067 213.06785583 C-568.96440306 203.34247725 -559.94281666 193.64782807 -549.88896942 185.11473083 C-547.73024106 183.2481612 -545.63582962 181.31940459 -543.54473114 179.37767029 C-538.46903671 174.66818873 -533.29630955 170.15368454 -527.89678192 165.81394958 C-525.56896998 163.93107385 -523.26626422 162.02934953 -520.97490692 160.10301208 C-511.65012445 152.28558629 -502.0865927 144.96359823 -492.13652802 137.96092224 C-489.79471639 136.30646158 -487.46806661 134.632293 -485.14287567 132.95457458 C-434.83654707 96.88646764 -378.11206604 69.68106982 -319.81084442 49.31785583 C-318.6095993 48.89552673 -317.40835419 48.47319763 -316.1707077 48.03807068 C-248.10940206 24.25453214 -176.72162837 11.18664288 -105.06084442 4.56785583 C-103.98464844 4.46680542 -102.90845245 4.365755 -101.79964447 4.26164246 C-67.90928508 1.11841627 -34.02439362 -0.07065927 0 0 Z M483.18915558 711.31785583 C465.62628032 785.76212802 455.34958497 860.93554989 451.18915558 937.31785583 C451.14508575 938.11322754 451.10101593 938.90859924 451.05561066 939.72807312 C449.35864735 971.0876685 449.02977613 1002.50809943 449.05483007 1033.90667009 C449.05744992 1038.25763019 449.05499026 1042.60858872 449.05344391 1046.95954895 C449.05164802 1054.25851327 449.05395804 1061.55746731 449.05878448 1068.85643005 C449.06361001 1076.23664514 449.06360619 1083.61683998 449.05878448 1090.99705505 C448.92648899 1168.19962873 448.92648899 1168.19962873 452.18915558 1245.31785583 C452.26393127 1246.46459778 452.26393127 1246.46459778 452.34021759 1247.63450623 C457.37496256 1323.97641041 469.85992497 1399.80238587 491.18915558 1473.31785583 C493.87168596 1470.63532546 494.11843256 1468.36446234 495.03681183 1464.68113708 C495.20922897 1463.99172028 495.38164612 1463.30230347 495.55928802 1462.59199524 C496.13370483 1460.27383542 496.69426811 1457.95266676 497.25165558 1455.63035583 C497.44757294 1454.81910248 497.6434903 1454.00784912 497.84534454 1453.17201233 C513.98060689 1385.99655135 522.24792796 1317.21758498 526.18915558 1248.31785583 C526.25526031 1247.1786972 526.25526031 1247.1786972 526.3227005 1246.01652527 C528.08733708 1214.84321033 528.35181663 1183.61145445 528.35641265 1152.39686656 C528.35713959 1149.59895248 528.35930358 1146.80104289 528.36190987 1144.00312996 C528.37108138 1134.11723152 528.37525591 1124.23134628 528.37445831 1114.34544373 C528.3739279 1106.32654303 528.38094601 1098.30769134 528.39496613 1090.2888031 C528.52086117 1033.78295331 528.52086117 1033.78295331 527.29462433 977.29441833 C527.25514364 976.12595304 527.21566296 974.95748775 527.17498589 973.75361443 C526.32670238 949.54990617 524.52827452 925.42063801 522.18915558 901.31785583 C522.1092337 900.49275513 522.02931183 899.66765442 521.94696808 898.81755066 C516.49014264 843.06272099 506.50923505 787.64328259 491.37665558 733.69285583 C491.18765686 733.01818268 490.99865814 732.34350952 490.80393219 731.64839172 C488.86279446 724.75507516 486.84548134 717.97123959 484.18915558 711.31785583 C483.85915558 711.31785583 483.52915558 711.31785583 483.18915558 711.31785583 Z " fill="#000000" transform="translate(1226.8108444213867,667.6821441650391)"/>
<path d="M0 0 C1.12637123 -0.00110464 1.12637123 -0.00110464 2.27549744 -0.0022316 C26.69049533 -0.0216379 50.88576377 0.70952384 75.20147705 3.04107666 C78.96399228 3.39262817 82.73011978 3.69985744 86.49609375 4.01171875 C107.43615082 5.76857393 128.18977013 8.04667606 148.80859375 12.15625 C152.89590749 12.96564809 156.99076445 13.70291474 161.09765625 14.40625 C175.62596214 16.89548898 189.92757096 19.83678979 204.21875 23.4453125 C207.58870575 24.28780144 210.96511812 25.09929998 214.34375 25.90625 C229.96531563 29.66725716 245.22796219 34.07579104 260.4375 39.25 C261.81896578 39.7162781 263.20047842 40.18241738 264.58203125 40.6484375 C316.88041158 58.33821562 367.11700805 80.72145366 414.4375 109.25 C415.4903418 109.88019043 416.54318359 110.51038086 417.62792969 111.15966797 C440.11173923 124.64391147 461.48631923 139.5052654 482.4375 155.25 C483.0370752 155.70036621 483.63665039 156.15073242 484.25439453 156.61474609 C500.79228658 169.08398163 516.8684969 182.29141331 532.1953125 196.22265625 C534.14958424 197.98967199 536.12809737 199.71913529 538.125 201.4375 C549.96978956 211.79016794 561.18082251 222.83000522 572.28369141 233.96582031 C574.46011269 236.14766908 576.64192239 238.32402913 578.82421875 240.5 C580.23730037 241.91374152 581.65007223 243.32779274 583.0625 244.7421875 C583.7011499 245.37881317 584.3397998 246.01543884 584.99780273 246.6713562 C588.77171205 250.46471161 592.36247371 254.36948496 595.85195923 258.42634583 C598.42237297 261.38277926 601.12480083 264.21314399 603.8125 267.0625 C608.48433901 272.05545284 612.93550315 277.15568757 617.2109375 282.49609375 C619.20456588 284.96189727 621.24776579 287.37591321 623.31616211 289.77905273 C629.83478793 297.3653545 635.88999483 305.27136786 641.91796875 313.25 C643.28698237 315.05188939 644.66933908 316.84175403 646.0625 318.625 C673.35650607 353.61731548 696.08789281 391.85693916 717.13134766 430.84179688 C718.24580863 432.89657127 719.37379158 434.94255039 720.51171875 436.984375 C726.8761721 448.56581213 732.30699395 460.60380224 737.78369141 472.62304688 C738.84192824 474.94385681 739.90376211 477.26303205 740.97021484 479.58007812 C752.91633808 505.56260038 763.08416331 532.21797951 772.5625 559.1875 C772.83262909 559.95559998 773.10275818 560.72369995 773.381073 561.51507568 C778.01039497 574.71717002 782.1516907 588.012208 785.875 601.5 C787.80539578 608.46100003 789.76863988 615.40278488 791.875 622.3125 C799.29348971 647.20813337 804.55365653 672.63467497 809.609375 698.09179688 C810.28983094 701.51688731 810.98392347 704.93894722 811.6875 708.359375 C819.41277604 745.9997803 824.32677537 784.06873935 828.4375 822.25 C828.53073547 823.1064209 828.62397095 823.9628418 828.72003174 824.84521484 C831.18262941 847.51133122 832.87336285 870.19631847 834.03198242 892.96606445 C834.09772662 894.25735594 834.16347081 895.54864743 834.23120725 896.87906897 C835.62795946 924.73940724 835.86787682 952.57262315 835.80754495 980.46571517 C835.79706393 986.49327392 835.79987311 992.52082173 835.80174746 998.54838601 C835.80488429 1010.47751489 835.79357495 1022.40658262 835.77368164 1034.33569336 C835.75461853 1045.77093355 835.74762228 1057.20610247 835.75317383 1068.64135742 C835.75929474 1081.28570033 835.75894714 1093.9300126 835.747688 1106.57435304 C835.74648141 1107.93318291 835.74527543 1109.29201279 835.74407005 1110.65084267 C835.74316475 1111.65218133 835.74316475 1111.65218133 835.74224115 1112.67374906 C835.73844256 1117.26583734 835.73878589 1121.85791354 835.7406559 1126.45000267 C835.75033929 1166.46653346 834.58000805 1206.19053518 831.125 1246.0625 C831.01767548 1247.32274994 830.91035095 1248.58299988 830.79977417 1249.88143921 C825.73452639 1309.20268571 817.64814529 1368.1560308 804.4375 1426.25 C804.1288032 1427.61830358 803.82021377 1428.98663138 803.51171875 1430.35498047 C799.60947169 1447.61656671 795.3762647 1464.68554179 790.22265625 1481.62353516 C789.4917874 1484.06840054 788.79853535 1486.51927553 788.125 1488.98046875 C774.23587914 1539.67287399 755.30669127 1588.81022585 732.83886719 1636.27978516 C731.61091494 1638.88244493 730.39803038 1641.49108154 729.1953125 1644.10546875 C705.76171234 1694.92712503 674.90104765 1743.19802495 640.4375 1787.25 C639.54530585 1788.40083467 638.65338637 1789.55188232 637.76171875 1790.703125 C631.97016022 1798.15632273 626.00217591 1805.43120048 619.85546875 1812.59375 C618.39738526 1814.29685578 616.94803148 1816.00709274 615.5 1817.71875 C609.67905865 1824.58196414 603.72572861 1831.29180117 597.58325195 1837.86865234 C595.20174126 1840.42171807 592.84575664 1842.99669642 590.49615479 1845.57919312 C583.17876649 1853.59141285 575.55542933 1861.28491135 567.87255859 1868.9453125 C565.67297928 1871.13948502 563.47885993 1873.33901723 561.28515625 1875.5390625 C559.8623 1876.96125856 558.43913391 1878.38314471 557.015625 1879.8046875 C556.37272522 1880.44961151 555.72982544 1881.09453552 555.06744385 1881.75900269 C551.24203031 1885.56500953 547.30524215 1889.18830685 543.21595764 1892.70965576 C540.62599021 1894.9528587 538.13219971 1897.28962237 535.625 1899.625 C531.02705619 1903.87361337 526.28979272 1907.88382139 521.41015625 1911.80859375 C517.89480831 1914.69570605 514.48227519 1917.68852678 511.0625 1920.6875 C505.00803514 1925.97028022 498.78610452 1930.96573442 492.36083984 1935.79052734 C490.15844748 1937.4617512 487.97967085 1939.16153363 485.80078125 1940.86328125 C473.64287669 1950.31423005 461.10734395 1958.99956321 448.21923828 1967.421875 C445.67283057 1969.09534358 443.14311803 1970.79008129 440.62109375 1972.5 C379.83439389 2013.69855261 308.68285541 2048.08540855 237.296875 2066.23828125 C234.53478572 2066.96235121 231.81066934 2067.72189744 229.078125 2068.54296875 C204.03220436 2076.04159361 178.37901569 2081.42564896 152.60449219 2085.71630859 C149.59917183 2086.22275558 146.60028737 2086.75680991 143.6015625 2087.30078125 C125.97841908 2090.45347631 108.24922499 2092.53357206 90.4375 2094.25 C89.49195251 2094.34192627 88.54640503 2094.43385254 87.57220459 2094.52856445 C58.11666994 2097.36097857 28.82391434 2098.62035782 -0.75 2098.5625 C-1.83507465 2098.56081566 -1.83507465 2098.56081566 -2.94207001 2098.55909729 C-30.22348593 2098.50804692 -57.46000792 2097.68586074 -84.6875 2095.9375 C-85.68754059 2095.87375183 -86.68758118 2095.81000366 -87.71792603 2095.74432373 C-105.3798252 2094.60176277 -122.90301895 2092.90298626 -140.44073486 2090.5357666 C-142.66431624 2090.23628704 -144.88848919 2089.94152443 -147.11279297 2089.64746094 C-191.52556383 2083.75804086 -235.49825971 2075.82707947 -278.5625 2063.25 C-279.62984375 2062.94425049 -279.62984375 2062.94425049 -280.71875 2062.63232422 C-363.03072296 2039.02922106 -441.57632865 2001.57076042 -509.5625 1949.25 C-510.19591309 1948.7653125 -510.82932617 1948.280625 -511.48193359 1947.78125 C-519.47899632 1941.64537492 -527.23619205 1935.24959721 -534.88427734 1928.68554688 C-536.65214519 1927.17331776 -538.42885317 1925.67196278 -540.20703125 1924.171875 C-545.90324606 1919.35176854 -551.47403486 1914.52862334 -556.65966797 1909.15185547 C-558.38072755 1907.43167916 -560.14435144 1905.86372919 -562.00390625 1904.296875 C-567.40056309 1899.60837393 -572.42033686 1894.54190767 -577.46264648 1889.48022461 C-579.1217732 1887.81573723 -580.78618051 1886.15666553 -582.45117188 1884.49804688 C-587.48883366 1879.46353668 -592.44753288 1874.4025905 -597.07495117 1868.98266602 C-599.44475468 1866.22236805 -601.94910846 1863.59044444 -604.4375 1860.9375 C-608.92439457 1856.11417577 -613.18539013 1851.16844022 -617.30859375 1846.02734375 C-619.2767408 1843.60212269 -621.29552157 1841.23220324 -623.34106445 1838.87231445 C-630.57377942 1830.49338137 -637.16385813 1821.64990073 -643.7265625 1812.74169922 C-644.88994599 1811.16277743 -646.05625791 1809.58600572 -647.2265625 1808.01220703 C-688.58201108 1752.38352635 -719.52225376 1690.20289556 -740.5625 1624.25 C-740.86140137 1623.31849121 -741.16030273 1622.38698242 -741.46826172 1621.42724609 C-748.66797709 1598.82005293 -753.97340322 1575.76417473 -758.01269531 1552.39746094 C-758.52740021 1549.45093537 -759.06714357 1546.51041599 -759.6171875 1543.5703125 C-767.72850765 1499.67901471 -768.5625 1457.27210037 -768.5625 1412.25 C-681.1125 1412.25 -593.6625 1412.25 -503.5625 1412.25 C-503.2325 1426.11 -502.9025 1439.97 -502.5625 1454.25 C-496.38319808 1541.37815705 -472.20865597 1628.50184551 -417.96777344 1698.43164062 C-416.63372473 1700.15783847 -415.31774825 1701.89608917 -414.0078125 1703.640625 C-407.85582371 1711.80297184 -401.31699625 1719.58273398 -394.5625 1727.25 C-393.7478125 1728.178125 -392.933125 1729.10625 -392.09375 1730.0625 C-385.9616429 1736.89320158 -379.52431066 1743.42005748 -373.0625 1749.9375 C-372.19633057 1750.81672119 -371.33016113 1751.69594238 -370.43774414 1752.60180664 C-364.46124548 1758.58618022 -358.18145941 1763.99141282 -351.5625 1769.25 C-350.04059159 1770.49869084 -348.5195908 1771.74848978 -347 1773 C-305.69815067 1805.79470741 -257.1317327 1829.54590914 -206.5625 1844.25 C-205.83289062 1844.46382324 -205.10328125 1844.67764648 -204.3515625 1844.89794922 C-188.33650787 1849.54822225 -172.11460391 1853.06704192 -155.81347656 1856.53320312 C-153.34910175 1857.07656483 -150.92535577 1857.6653542 -148.4921875 1858.328125 C-143.31526999 1859.65248477 -138.01325593 1860.25615988 -132.72357178 1860.96026611 C-130.38967132 1861.27317106 -128.05738517 1861.59668416 -125.72509766 1861.92138672 C-72.96326387 1869.22885241 -21.04821118 1871.75630007 32.1875 1869.375 C33.06727509 1869.33597565 33.94705017 1869.29695129 34.85348511 1869.25674438 C53.87795833 1868.38263665 72.71226901 1866.63648135 91.5 1863.5 C92.28311554 1863.37127502 93.06623108 1863.24255005 93.87307739 1863.10992432 C113.60812705 1859.85773438 133.30336879 1856.15207032 152.4375 1850.25 C153.59765625 1849.9303125 154.7578125 1849.610625 155.953125 1849.28125 C211.03607263 1834.07818753 263.46029424 1808.05306612 309.4375 1774.25 C310.05947266 1773.79544434 310.68144531 1773.34088867 311.32226562 1772.87255859 C327.24199332 1761.21275803 342.50165193 1748.70741093 356.9375 1735.25 C360.45363078 1731.98375935 363.97852607 1728.74632251 367.625 1725.625 C373.74349784 1720.31972023 379.4497176 1714.56959254 384.75390625 1708.453125 C388.48225576 1704.15869892 392.38608258 1700.0501245 396.3125 1695.9375 C402.32406413 1689.58951897 408.02579917 1683.12092731 413.4375 1676.25 C414.35243239 1675.12488956 415.26921866 1674.00128505 416.1875 1672.87890625 C437.08898393 1647.23759084 454.7373479 1619.32593534 470.4375 1590.25 C470.95973145 1589.28610352 471.48196289 1588.32220703 472.02001953 1587.32910156 C486.23046451 1560.95072955 497.90868566 1533.67378556 508.22216797 1505.56103516 C509.38828337 1502.38408516 510.56926281 1499.21304812 511.75390625 1496.04296875 C514.95373779 1487.43158325 518.00500567 1478.85697895 520.3984375 1469.98046875 C521.18782217 1467.14639972 522.02361763 1464.35306363 522.9140625 1461.55078125 C528.57920443 1443.65675817 533.06336563 1425.49381649 537.4375 1407.25 C537.68741699 1406.21504395 537.93733398 1405.18008789 538.19482422 1404.11376953 C543.09651909 1383.56820972 546.40434306 1362.63260968 549.99255371 1341.82629395 C550.27914036 1340.16692187 550.56719315 1338.507802 550.85705566 1336.84899902 C552.90033552 1325.14499766 554.52647317 1313.42122342 555.9375 1301.625 C556.04455261 1300.73815521 556.15160522 1299.85131042 556.26190186 1298.93759155 C558.13248323 1283.40261604 559.76438728 1267.86238644 561.09033203 1252.27050781 C561.32184532 1249.55773822 561.56565739 1246.84648217 561.81982422 1244.13574219 C567.7489105 1180.86078278 566.78600892 1117.16002937 566.75117999 1053.68150455 C566.74721078 1043.95500152 566.76187013 1034.2285919 566.7807439 1024.50211 C566.79861619 1014.92142594 566.80432265 1005.34078179 566.80110615 995.76008177 C566.7993366 990.12041916 566.80147593 984.48084844 566.81582069 978.84120178 C566.92587731 931.50867502 564.33142584 884.30883999 559.1875 837.25 C559.0817868 836.27908417 558.97607361 835.30816833 558.86715698 834.30783081 C554.62899577 795.66941218 548.0856129 757.72147782 539.8125 719.75 C539.62440765 718.88463623 539.43631531 718.01927246 539.24252319 717.12768555 C536.9069076 706.41891806 534.36285923 695.81521478 531.4375 685.25 C531.15052246 684.19184082 530.86354492 683.13368164 530.56787109 682.04345703 C524.97596734 661.51194151 518.3523569 641.36739887 511.4375 621.25 C511.07156738 620.18023926 510.70563477 619.11047852 510.32861328 618.00830078 C498.30789759 583.10693961 482.95005883 548.67051808 464.74267578 516.55908203 C463.52881638 514.4115545 462.33632105 512.25395198 461.15234375 510.08984375 C443.63538613 478.20455621 422.72871999 448.17222279 399.4375 420.25 C397.93705233 418.39619558 396.43706325 416.54201991 394.9375 414.6875 C390.59890006 409.38810284 386.06573083 404.29690303 381.4375 399.25 C380.57125 398.30253906 379.705 397.35507813 378.8125 396.37890625 C376.96579187 394.35998854 375.11477762 392.34511971 373.26171875 390.33203125 C371.37487764 388.27952901 369.50408251 386.21396722 367.64453125 384.13671875 C362.65965414 378.58958469 357.53059803 373.38552316 351.91015625 368.46875 C349.27889261 366.10767931 346.7950086 363.6416194 344.3125 361.125 C340.17707208 356.95110299 335.91971139 353.04504309 331.4375 349.25 C330.47070312 348.41726563 329.50390625 347.58453125 328.5078125 346.7265625 C321.01423525 340.29484206 313.3165489 334.20067847 305.4375 328.25 C304.50808594 327.53457031 303.57867188 326.81914063 302.62109375 326.08203125 C263.03772729 295.85773614 219.20410568 273.06835774 172.38427734 256.31201172 C169.84740734 255.39772965 167.32222572 254.45965592 164.80078125 253.50390625 C153.84484573 249.40221489 142.61876008 246.65994873 131.24926758 243.94970703 C128.59943507 243.29029746 125.98600883 242.55193483 123.36328125 241.79296875 C115.35485473 239.5868712 107.17138326 238.20425579 99 236.75 C98.13558289 236.59592682 97.27116577 236.44185364 96.3805542 236.28311157 C32.8996542 225.04953829 -33.73471638 225.07355679 -97.54443359 233.83642578 C-100.85714207 234.29037564 -104.1725967 234.72069726 -107.48828125 235.15234375 C-121.38293097 237.0037666 -135.04277707 239.35871486 -148.68652344 242.57470703 C-151.66491088 243.27404656 -154.64832015 243.94832479 -157.6328125 244.62109375 C-222.16555762 259.38100008 -286.98272046 287.63085817 -336.0859375 332.984375 C-338.09225899 334.81981106 -340.12813974 336.59346404 -342.19140625 338.36328125 C-347.39773785 342.90727608 -352.2509808 347.79260705 -357.125 352.6875 C-358.03185547 353.59048828 -358.93871094 354.49347656 -359.87304688 355.42382812 C-364.97942798 360.53761515 -369.87961742 365.7472634 -374.5625 371.25 C-375.54716271 372.37979113 -376.53280748 373.50872724 -377.51953125 374.63671875 C-384.16522001 382.29741876 -390.49007957 390.12888038 -396.5625 398.25 C-396.98321777 398.80703613 -397.40393555 399.36407227 -397.83740234 399.93798828 C-438.20062317 453.43707879 -466.73133463 513.77202972 -484.5625 578.25 C-484.8301416 579.21196289 -485.0977832 580.17392578 -485.37353516 581.16503906 C-494.21330555 613.40024993 -500.17929966 647.23982136 -502.30322266 680.60546875 C-502.5625 683.25 -502.5625 683.25 -503.5625 686.25 C-591.0125 686.25 -678.4625 686.25 -768.5625 686.25 C-768.5625 679.30421893 -768.47568172 672.86013103 -767.64453125 666.04296875 C-767.54735809 665.20814468 -767.45018494 664.37332062 -767.35006714 663.51319885 C-767.03323808 660.82024532 -766.70539937 658.12882033 -766.375 655.4375 C-766.26201569 654.50627319 -766.14903137 653.57504639 -766.03262329 652.61560059 C-762.53124494 623.87584959 -757.22592534 595.65064221 -751.02990723 567.38391113 C-750.59434689 565.3953945 -750.16180045 563.40621837 -749.72949219 561.41699219 C-746.32246867 545.819145 -742.33760169 530.48504586 -737.5625 515.25 C-737.32426514 514.48911072 -737.08603027 513.72822144 -736.84057617 512.9442749 C-729.55203633 489.7173295 -722.00164783 466.70696388 -712.5625 444.25 C-712.06959473 443.06792969 -711.57668945 441.88585938 -711.06884766 440.66796875 C-699.71324221 413.50282353 -687.15819441 386.83438217 -672.5625 361.25 C-671.94713379 360.16605957 -671.33176758 359.08211914 -670.69775391 357.96533203 C-656.77364578 333.49671378 -641.71056425 309.78254143 -624.953125 287.14648438 C-623.17520102 284.72181558 -621.44907143 282.2628065 -619.72241211 279.80151367 C-614.41809767 272.25555167 -608.72214617 265.06418315 -602.90527344 257.90869141 C-601.10433478 255.684041 -599.33522226 253.43466452 -597.5625 251.1875 C-593.37627711 245.9525546 -589.00038514 240.88570282 -584.62109375 235.8125 C-582.6961158 233.57945323 -580.79072638 231.33305663 -578.91015625 229.0625 C-572.33669264 221.14066534 -565.37106997 213.64913412 -558.28125 206.1875 C-555.44138438 203.19489261 -552.66600861 200.15752469 -549.9375 197.0625 C-542.388474 188.60063592 -534.33236231 180.40622965 -525.671875 173.078125 C-523.37604503 171.08840569 -521.15929709 169.02752406 -518.93994141 166.95336914 C-512.68511553 161.11149551 -506.27216865 155.56987446 -499.5625 150.25 C-498.51948264 149.41412316 -497.47651588 148.57818316 -496.43359375 147.7421875 C-481.98181808 136.21821562 -467.10272784 125.26156687 -451.5625 115.25 C-450.8519043 114.78916016 -450.14130859 114.32832031 -449.40917969 113.85351562 C-429.77050541 101.14563914 -409.44091343 89.78757969 -388.5625 79.25 C-387.52915527 78.72792969 -386.49581055 78.20585938 -385.43115234 77.66796875 C-344.45651666 57.11501648 -301.00967523 41.36812051 -256.5625 30.25 C-255.12885346 29.88822996 -253.69525505 29.52626911 -252.26171875 29.1640625 C-249.68404566 28.51445696 -247.10453474 27.87439345 -244.5234375 27.23828125 C-241.75058256 26.55305145 -238.98745368 25.83736652 -236.2265625 25.10546875 C-212.73129133 18.9430995 -188.77357117 14.85574845 -164.72747803 11.54943848 C-162.29777533 11.21338589 -159.8688305 10.87215641 -157.43994141 10.53027344 C-152.65564026 9.85706504 -147.87051928 9.18996617 -143.08480835 8.52685547 C-141.19193066 8.26431412 -139.29920285 8.00068929 -137.40664673 7.73583984 C-118.87320832 5.14953739 -100.34473795 3.24313737 -81.65332031 2.29956055 C-79.4560852 2.18843991 -77.25931068 2.07036158 -75.0625 1.95117188 C-70.23019259 1.69393828 -65.39674022 1.46758822 -60.5625 1.25 C-59.11540146 1.1837442 -59.11540146 1.1837442 -57.6390686 1.1161499 C-38.42564414 0.2575829 -19.228967 0.00871074 0 0 Z " fill="#FEFEFE" transform="translate(1234.5625,714.75)"/>
<path d="M0 0 C3.03715495 0.01175367 6.07428529 0.01824233 9.11145782 0.02360535 C38.58654292 0.08437644 67.94809673 0.50496816 97.32294464 3.15867615 C99.86877985 3.3880434 102.41533939 3.60716567 104.96222687 3.82450867 C187.13536785 10.92883333 268.86220717 27.73693519 377.85187531 71.38652039 C379.45554962 72.10315857 379.45554962 72.10315857 381.0916214 72.83427429 C431.68634186 95.52225934 479.3725488 124.55311809 522.11066437 159.94950867 C524.6334525 162.03155171 527.182793 164.08058833 529.72687531 166.13652039 C534.10948579 169.72408459 538.33509445 173.45753831 542.51984406 177.27323914 C544.60222267 179.16028575 546.71690594 180.99710271 548.85187531 182.82402039 C552.90316349 186.34439379 556.63524404 190.15312085 560.40265656 193.97245789 C562.54942066 196.08840719 564.74090152 198.06426406 567.03937531 200.01152039 C569.60622294 202.20386522 571.85345184 204.45478133 574.02765656 207.03495789 C578.07618586 211.72102968 582.43817038 216.04687091 586.85187531 220.38652039 C591.86271273 225.31328336 596.73414257 230.27253257 601.31476593 235.60429382 C603.34984378 237.96389807 605.47701186 240.23278752 607.60187531 242.51152039 C611.89475483 247.21417477 615.8576457 252.0991359 619.75202179 257.13432312 C622.63694596 260.86070457 625.60434658 264.48812748 628.66437531 268.07402039 C634.88767974 275.4846007 640.54514875 283.30766032 646.22248077 291.13993835 C647.64624373 293.102999 649.0776836 295.06009966 650.51203156 297.01542664 C697.33640319 361.21452498 731.57751362 436.35570593 760.85187531 576.38652039 C760.93481842 577.03653015 761.01776154 577.68653992 761.10321808 578.35624695 C763.43623645 596.76080908 765.14303657 615.17107365 766.10187531 633.69902039 C766.14298431 634.45588135 766.18409332 635.21274231 766.22644806 635.99253845 C767.09587985 652.46950643 766.85187531 668.86036718 766.85187531 685.38652039 C679.07187531 685.38652039 591.29187531 685.38652039 500.85187531 685.38652039 C500.52187531 672.51652039 500.19187531 659.64652039 499.85187531 646.38652039 C495.58923889 570.31485515 477.22840382 495.68092474 436.85187531 430.38652039 C436.26148468 429.42230164 435.67109406 428.45808289 435.06281281 427.46464539 C433.36455711 424.74421683 431.62231917 422.06055178 429.85187531 419.38652039 C429.47514679 418.81675476 429.09841827 418.24698914 428.71027374 417.65995789 C417.86698982 401.34810984 405.74772154 386.11361533 392.85187531 371.38652039 C392.18542999 370.60792664 391.51898468 369.82933289 390.83234406 369.02714539 C386.72737962 364.24574211 382.34582462 359.80116471 377.85187531 355.38652039 C375.18464528 352.7325382 372.5339185 350.06425434 369.90656281 347.37089539 C363.2244574 340.55034422 356.38835277 334.26934453 348.85187531 328.38652039 C347.55804532 327.34201338 346.26514471 326.29635454 344.97296906 325.24980164 C312.10412276 298.869019 274.32182012 278.90543741 234.85187531 264.38652039 C234.12452179 264.11291687 233.39716827 263.83931335 232.64777374 263.55741882 C176.69654687 242.51252084 116.27831341 233.10658825 56.85187531 229.38652039 C56.20040527 229.34341736 55.54893524 229.30031433 54.87772369 229.25590515 C38.03052722 228.16539938 21.1645651 228.14266783 4.28937531 228.13652039 C3.5467897 228.13593124 2.8042041 228.1353421 2.03911591 228.13473511 C-20.50552425 228.1221333 -42.74973741 228.59740963 -65.14812469 231.38652039 C-66.47686181 231.53964791 -67.80580725 231.69097717 -69.1349411 231.84062195 C-149.49094364 240.90119372 -240.13355538 267.85135532 -303.51604462 320.43974304 C-304.05463104 320.75217957 -304.59321747 321.06461609 -305.14812469 321.38652039 C-308.42542799 320.29408595 -308.77390485 319.88576348 -310.60906219 317.16777039 C-311.07368866 316.49157654 -311.53831512 315.81538269 -312.01702118 315.11869812 C-312.51403534 314.38207947 -313.0110495 313.64546082 -313.52312469 312.88652039 C-323.26259548 298.78226303 -333.83567394 285.37749528 -344.71257782 272.13798523 C-345.98399681 270.58676757 -347.2464258 269.02819104 -348.50749969 267.46855164 C-358.04078215 255.69112057 -368.0469102 244.34269646 -378.39788055 233.28031921 C-379.71213107 231.85827413 -381.01279681 230.42365454 -382.30657196 228.98295593 C-390.36536125 220.05378333 -398.83182555 211.55056601 -407.34661102 203.05766296 C-409.84476437 200.56490043 -412.33748668 198.06679564 -414.82976532 195.56816101 C-416.43947061 193.9591161 -418.04948585 192.3503812 -419.65984344 190.74198914 C-420.76014137 189.63865486 -420.76014137 189.63865486 -421.88266754 188.51303101 C-425.93093108 184.48287662 -430.06881603 180.61811917 -434.40166473 176.89486694 C-436.98342516 174.66510529 -439.46441304 172.33666299 -441.96062469 170.01152039 C-446.64477805 165.67908838 -451.48502733 161.60332219 -456.45671844 157.60136414 C-460.81971897 154.01091233 -464.98560793 150.20592297 -469.14812469 146.38652039 C-446.20694399 122.38911589 -410.01272869 105.18456079 -380.82927704 89.80497742 C-378.34945087 88.4930315 -375.88184808 87.16113199 -373.41765594 85.82011414 C-349.48570889 72.87180148 -324.48186695 62.24019811 -299.14812469 52.38652039 C-298.52248627 52.14288757 -297.89684784 51.89925476 -297.25225067 51.64823914 C-223.77152588 23.11390717 -145.21720396 7.20608383 -66.68718719 1.76542664 C-65.75786503 1.70090176 -64.82854286 1.63637688 -63.87105942 1.5698967 C-42.58199358 0.12794654 -21.330681 -0.08922536 0 0 Z " fill="#2F4EFD" transform="translate(2242.148124694824,708.6134796142578)"/>
<path d="M0 0 C87.78 0 175.56 0 266 0 C263.60199402 27.57706876 263.60199402 27.57706876 261.8125 41 C261.6563472 42.18258896 261.6563472 42.18258896 261.49703979 43.3890686 C257.75582094 71.50069936 252.5879912 99.41671325 246 127 C245.73751465 128.1127832 245.4750293 129.22556641 245.20458984 130.37207031 C233.21441433 180.92408196 215.83810846 229.88887189 194 277 C193.48791992 278.10537109 192.97583984 279.21074219 192.44824219 280.34960938 C177.82535149 311.73945448 160.66038976 342.07628209 141.41845703 370.87304688 C140.07866551 372.88204236 138.75365222 374.8998766 137.43359375 376.921875 C130.93418794 386.83984146 124.02129799 396.44639603 117 406 C116.49178711 406.69270996 115.98357422 407.38541992 115.45996094 408.09912109 C108.39413729 417.7035778 101.02997035 427.02799654 93.45166016 436.23242188 C92.17275934 437.78964386 90.90393751 439.35513181 89.63671875 440.921875 C80.53907404 452.16503373 71.04058098 463.03728444 61.10864258 473.54980469 C57.96063641 476.88282068 54.8756803 480.25863966 51.83203125 483.6875 C46.90157603 489.18204597 41.73571066 494.4159137 36.5065918 499.6237793 C34.93225845 501.1927236 33.36338411 502.76698558 31.79492188 504.34179688 C26.36856454 509.77210633 20.85394455 515.02862335 15 520 C13.80816452 521.04490353 12.61804455 522.09176718 11.4296875 523.140625 C3.16450968 530.38690292 -5.270824 537.32195365 -14 544 C-14.71720215 544.55381348 -15.4344043 545.10762695 -16.17333984 545.67822266 C-72.49876365 589.10542243 -136.53015146 621.01587426 -204 643 C-205.65733154 643.55131592 -205.65733154 643.55131592 -207.34814453 644.11376953 C-282.18658698 668.93604247 -361.46512881 680.06145153 -440 684 C-441.06573242 684.05784668 -442.13146484 684.11569336 -443.22949219 684.17529297 C-527.76003819 688.65294056 -613.41334854 682.78132617 -696 664 C-696.74495728 663.83111267 -697.48991455 663.66222534 -698.25744629 663.48822021 C-733.16375848 655.5364607 -767.72995211 645.2527366 -801 632 C-802.74313477 631.30656494 -802.74313477 631.30656494 -804.52148438 630.59912109 C-854.73778077 610.48170433 -902.67116444 585.83357676 -947.625 555.6875 C-948.57383057 555.05924316 -949.52266113 554.43098633 -950.50024414 553.78369141 C-951.3586792 553.19894043 -952.21711426 552.61418945 -953.1015625 552.01171875 C-953.85775879 551.50084717 -954.61395508 550.98997559 -955.39306641 550.46362305 C-956.18849854 549.73912964 -956.18849854 549.73912964 -957 549 C-957 546 -957 546 -954.4375 543.328125 C-953.29933555 542.29358297 -952.15296224 541.26802436 -951 540.25 C-950.09870361 539.43668213 -950.09870361 539.43668213 -949.17919922 538.60693359 C-946.18791895 535.9155068 -943.16578549 533.26034742 -940.125 530.625 C-927.25126003 519.44049386 -915.20069373 507.35999068 -903.16308594 495.29345703 C-900.47966144 492.60462042 -897.79086208 489.92124044 -895.1015625 487.23828125 C-893.36947057 485.50552925 -891.63768846 483.77246747 -889.90625 482.0390625 C-888.71860046 480.85444931 -888.71860046 480.85444931 -887.50695801 479.64590454 C-883.34282578 475.46431486 -879.33264567 471.20589265 -875.48898315 466.72709656 C-873.26741506 464.15026243 -870.94394391 461.6770569 -868.625 459.1875 C-864.3312462 454.53961458 -860.2646816 449.75583652 -856.296875 444.82421875 C-854.27456153 442.33759861 -852.20809063 439.89692001 -850.11767578 437.4675293 C-843.6498198 429.93632177 -837.63446879 422.09618835 -831.65283203 414.17626953 C-830.04075136 412.05365696 -828.4125537 409.94467286 -826.77734375 407.83984375 C-819.08621559 397.92104526 -811.81538356 387.75146924 -804.68066406 377.42626953 C-801.80351865 373.27271476 -798.90116119 369.13680054 -796 365 C-791.82128181 367.31264938 -787.85648932 369.73006702 -783.96826172 372.49975586 C-772.42809998 380.71849092 -760.24366769 387.89021557 -748 395 C-747.07413086 395.53802246 -746.14826172 396.07604492 -745.19433594 396.63037109 C-713.20185002 415.04798319 -678.60358084 428.24784974 -643.10644531 438.13427734 C-641.11649617 438.68884821 -639.12863046 439.25098422 -637.14355469 439.82275391 C-599.57046501 450.64289481 -560.02088674 455.11027529 -521.0625 456.625 C-520.03487549 456.66512207 -519.00725098 456.70524414 -517.94848633 456.74658203 C-500.67469962 457.33139648 -483.44937409 456.93449218 -466.1875 456.1875 C-465.15886841 456.1433194 -464.13023682 456.09913879 -463.07043457 456.05361938 C-445.96397888 455.30365262 -428.99527647 454.15360335 -412 452 C-411.33581055 451.91727844 -410.67162109 451.83455688 -409.98730469 451.74932861 C-359.99170721 445.51302644 -311.43768458 433.84677404 -265 414 C-264.22495117 413.67563965 -263.44990234 413.3512793 -262.65136719 413.01708984 C-226.31478753 397.80990837 -192.12486191 375.58989795 -163.140625 348.95703125 C-161.21228157 347.19407494 -159.2437201 345.50046051 -157.25 343.8125 C-148.84742117 336.48805247 -140.83332526 328.4146208 -133.62890625 319.91015625 C-131.67762284 317.6219606 -129.65182313 315.4090094 -127.625 313.1875 C-119.23744759 303.87745875 -111.51866303 294.01868491 -104 284 C-103.52079102 283.36271973 -103.04158203 282.72543945 -102.54785156 282.06884766 C-73.69788296 243.48084758 -50.32492192 200.34428082 -34 155 C-33.76043579 154.33716003 -33.52087158 153.67432007 -33.27404785 152.99139404 C-15.20857325 102.84484214 -6.92145077 53.06445587 0 0 Z " fill="#2F4EFD" transform="translate(2743,2116)"/>
<path d="M0 0 C2.93529349 1.32483081 5.01037418 2.76144662 7.28051758 5.03759766 C7.89828568 5.65228912 8.51605377 6.26698059 9.15254211 6.90029907 C10.13857674 7.89711197 10.13857674 7.89711197 11.14453125 8.9140625 C11.83254318 9.60253265 12.52055511 10.29100281 13.22941589 11.00033569 C14.68502068 12.45895983 16.13819597 13.92001191 17.58911133 15.38330078 C19.78878304 17.60108772 21.99620887 19.81090877 24.20507812 22.01953125 C25.62286572 23.44224022 27.04019781 24.86540331 28.45703125 26.2890625 C29.10831497 26.94145905 29.75959869 27.59385559 30.43061829 28.26602173 C34.80964688 32.68959187 38.94495724 37.27894799 43 42 C43.97331011 43.11775229 44.94715883 44.23503613 45.921875 45.3515625 C52.31156271 52.7277948 58.47839681 60.23804097 64.43066406 67.97119141 C66.15718533 70.2032063 67.90303063 72.4194458 69.6484375 74.63671875 C110.82542654 127.33648662 140.69847334 188.905334 162.625 251.8125 C163.26441528 253.6368457 163.26441528 253.6368457 163.91674805 255.49804688 C164.30773682 256.63951172 164.69872559 257.78097656 165.1015625 258.95703125 C165.44525879 259.95710205 165.78895508 260.95717285 166.14306641 261.98754883 C168.13249876 268.98116872 167.8925879 274.02930205 166.15625 280.9375 C165.73344488 282.71638167 165.3106763 284.49527203 164.88793945 286.27416992 C164.66159821 287.20587006 164.43525696 288.13757019 164.20205688 289.09750366 C162.998443 294.07357465 161.84737649 299.06166649 160.69921875 304.05078125 C160.34926094 305.57098625 160.34926094 305.57098625 159.99223328 307.12190247 C145.74156769 369.56943155 139.47792837 434.14789151 136 498 C135.93389526 499.19305756 135.93389526 499.19305756 135.86645508 500.41021729 C134.16949177 531.76981267 133.84062055 563.1902436 133.8656745 594.58881426 C133.86829434 598.93977435 133.86583468 603.29073289 133.86428833 607.64169312 C133.86249244 614.94065743 133.86480246 622.23961148 133.86962891 629.53857422 C133.87445443 636.9187893 133.87445061 644.29898415 133.86962891 651.67919922 C133.73733341 728.88177289 133.73733341 728.88177289 137 806 C137.0747757 807.14674194 137.0747757 807.14674194 137.15106201 808.31665039 C141.79664125 878.75762949 152.66014527 948.86586869 171.33569336 1016.98193359 C171.96506374 1019.28638765 172.58096645 1021.59457494 173.18139648 1023.90673828 C173.68063723 1025.79322211 174.21784416 1027.67083816 174.82055664 1029.52685547 C177.13098181 1037.63140033 174.28773108 1044.89067771 171.8125 1052.625 C171.34824947 1054.12859347 170.88530044 1055.63258934 170.42358398 1057.13696289 C168.98915055 1061.77116582 167.50125151 1066.38707486 166 1071 C165.76869385 1071.71416077 165.5373877 1072.42832153 165.29907227 1073.16412354 C156.31542349 1100.85515447 145.54384869 1127.71926203 133 1154 C132.50806152 1155.03447266 132.01612305 1156.06894531 131.50927734 1157.13476562 C120.70600729 1179.70052295 108.35850907 1201.49134456 94 1222 C93.59620117 1222.57959473 93.19240234 1223.15918945 92.77636719 1223.75634766 C81.57338098 1239.80115448 69.47519868 1255.01132795 56.28955078 1269.47509766 C54.88502635 1271.02399846 53.4888455 1272.58057868 52.10717773 1274.14990234 C45.86265919 1281.21960311 39.25709324 1287.8959104 32.57788086 1294.55249023 C30.66987716 1296.45507277 28.76735686 1298.36302392 26.86523438 1300.27148438 C25.64355015 1301.49250874 24.42155627 1302.71322338 23.19921875 1303.93359375 C22.35383797 1304.78201088 22.35383797 1304.78201088 21.49137878 1305.64756775 C15.68045739 1311.42400884 15.68045739 1311.42400884 13 1313 C9.40875458 1311.80291819 9.13787825 1311.04196772 7.28515625 1307.86328125 C6.77025635 1306.98776611 6.25535645 1306.11225098 5.72485352 1305.21020508 C5.17627686 1304.2539624 4.6277002 1303.29771973 4.0625 1302.3125 C3.4862085 1301.32080811 2.90991699 1300.32911621 2.31616211 1299.30737305 C-3.65328982 1288.97779619 -9.39817047 1278.53283344 -15 1268 C-15.54769043 1266.97310059 -16.09538086 1265.94620117 -16.65966797 1264.88818359 C-57.78422359 1187.5083136 -85.89491575 1104.21793971 -114 973 C-114.1516864 972.16202881 -114.3033728 971.32405762 -114.45965576 970.46069336 C-125.08843923 911.4242825 -131.26220655 851.41173005 -133.88693905 791.49290085 C-133.9612716 789.8539294 -134.03977679 788.21514092 -134.12281895 786.57658768 C-135.33218221 762.57772618 -135.16461575 738.55758771 -135.16725707 714.53545356 C-135.16797587 710.85023653 -135.17012565 707.16502304 -135.17275429 703.4798069 C-135.18196715 690.53674718 -135.18609476 677.59369765 -135.18530273 664.65063477 C-135.18470474 652.72843417 -135.19521239 640.80627921 -135.2110464 628.88409013 C-135.22428326 618.53556415 -135.22947991 608.18705278 -135.22884732 597.83851844 C-135.22859679 591.70839149 -135.23119291 585.57830512 -135.24202538 579.44818687 C-135.30735612 539.72676304 -134.33148312 500.10856953 -131.1875 460.5 C-131.06152939 458.87730698 -131.06152939 458.87730698 -130.93301392 457.22183228 C-123.43973391 361.1440275 -106.82815881 265.92764767 -1.91357422 3.55175781 C-1.23129564 2.39286882 -0.60141961 1.20283923 0 0 Z " fill="#2F4EFD" transform="translate(1543,1107)"/>
<path d="M0 0 C0.68449219 0.60585937 1.36898438 1.21171875 2.07421875 1.8359375 C2.89277344 2.52429687 3.71132812 3.21265625 4.5546875 3.921875 C26.18714296 22.57618606 36.77926347 49.78906959 39.07421875 77.8359375 C39.22797842 81.62516062 39.26137969 85.41105556 39.27734375 89.203125 C39.28304382 90.27732697 39.2887439 91.35152893 39.2946167 92.45828247 C39.30402148 94.72575918 39.31058258 96.99324928 39.31445312 99.26074219 C39.32409232 102.66627047 39.35513257 106.07117711 39.38671875 109.4765625 C39.55210496 143.47792135 32.13032184 174.49369247 7.88671875 199.5234375 C-11.40945051 218.68662729 -35.92133373 225.10739003 -62.51855469 225.08251953 C-88.49502017 224.82798504 -110.8240527 215.53093591 -129.5546875 197.2734375 C-157.02028993 168.42407189 -159.82441096 129.18191542 -159.03515625 91.36181641 C-158.11310479 61.63800571 -151.24873341 33.39756253 -130.92578125 10.8359375 C-130.22839844 10.05605469 -129.53101563 9.27617188 -128.8125 8.47265625 C-97.52148248 -24.64891439 -35.44475457 -29.84110765 0 0 Z M-98.92578125 21.8359375 C-99.75335937 22.45597656 -100.5809375 23.07601563 -101.43359375 23.71484375 C-117.84230816 37.68025429 -124.58962725 61.0407328 -126.46118164 81.73852539 C-128.76723478 113.24456304 -128.86610019 150.21195128 -107.55078125 175.7734375 C-95.70151706 189.33642994 -81.23876678 196.7568433 -63.1953125 198.1171875 C-45.68584197 198.5526562 -30.84217813 193.85012344 -17.5234375 182.37109375 C0.6182292 164.66591828 7.04029349 140.38197602 7.41015625 115.76953125 C7.43501577 112.66156205 7.44530427 109.55411326 7.44482422 106.44604492 C7.44917647 103.30396427 7.48553963 100.16331598 7.5234375 97.02148438 C7.67544795 69.66941493 1.92804684 44.68585373 -17.17578125 24.2109375 C-39.50845253 2.58244955 -75.19808414 3.16290826 -98.92578125 21.8359375 Z " fill="#2F4EFE" transform="translate(1061.92578125,1461.1640625)"/>
<path d="M0 0 C96.30894309 0 96.30894309 0 114 8 C115.7634375 8.79083984 115.7634375 8.79083984 117.5625 9.59765625 C125.23196108 13.1656633 131.66699632 17.41143881 138 23 C138.81984375 23.67675781 139.6396875 24.35351562 140.484375 25.05078125 C161.31835186 42.74672122 171.39432014 67.87775346 174.40234375 94.5703125 C174.70796198 98.38007395 174.8963724 102.18045945 175 106 C175.02191406 106.80679199 175.04382812 107.61358398 175.06640625 108.44482422 C175.8143163 141.80784488 171.58712166 172.41538239 150 199 C149.2575 199.99 148.515 200.98 147.75 202 C143.81332351 206.6594761 138.79820185 210.2825329 134 214 C132.80697266 214.93392578 132.80697266 214.93392578 131.58984375 215.88671875 C94.49776586 243.44260299 41.71312192 234 0 234 C0 156.78 0 79.56 0 0 Z M31 26 C31 86.06 31 146.12 31 208 C75.01373176 210.21101115 75.01373176 210.21101115 114 194 C115.21816406 193.06414062 115.21816406 193.06414062 116.4609375 192.109375 C132.8976832 178.45423242 139.75753068 158.04276684 142.46875 137.4375 C142.76467585 133.95215113 142.91586673 130.49701763 143 127 C143.0306958 125.89881836 143.0306958 125.89881836 143.06201172 124.77539062 C143.73566261 97.5843911 141.56032819 67.90230497 122 47 C120.96166016 45.88238281 120.96166016 45.88238281 119.90234375 44.7421875 C95.8583646 21.05947014 62.47515244 26 31 26 Z " fill="#2F4EFE" transform="translate(915,1831)"/>
<path d="M0 0 C48.51 0 97.02 0 147 0 C147 8.58 147 17.16 147 26 C109.05 26 71.1 26 32 26 C32 50.75 32 75.5 32 101 C65.33 101 98.66 101 133 101 C133 109.58 133 118.16 133 127 C99.67 127 66.34 127 32 127 C32 153.73 32 180.46 32 208 C70.61 208 109.22 208 149 208 C149 216.58 149 225.16 149 234 C99.83 234 50.66 234 0 234 C0 156.78 0 79.56 0 0 Z " fill="#2F4FFE" transform="translate(928,2214)"/>
<path d="M0 0 C15.6750054 12.19650212 26.54409758 29.19734419 29.25390625 49.00390625 C29.25390625 53.62390625 29.25390625 58.24390625 29.25390625 63.00390625 C19.02390625 63.00390625 8.79390625 63.00390625 -1.74609375 63.00390625 C-2.09671875 60.32265625 -2.44734375 57.64140625 -2.80859375 54.87890625 C-4.85666198 41.69035233 -10.27972563 29.71291984 -20.74609375 21.00390625 C-36.05288433 11.01381302 -54.3045417 9.15285281 -72.12890625 11.4375 C-88.00542759 14.84565991 -101.67336701 23.98432191 -110.68359375 37.44140625 C-120.02241136 53.51233267 -123.84736504 71.4703593 -123.984375 89.921875 C-123.99244675 90.97433914 -124.00051849 92.02680328 -124.00883484 93.11116028 C-124.02263043 95.33930846 -124.0333727 97.56747737 -124.04125977 99.7956543 C-124.05269728 102.03627885 -124.07301571 104.27687798 -124.1027832 106.51733398 C-124.47377635 134.50762682 -120.44436866 161.16380715 -100.56640625 182.32421875 C-89.01487762 193.49700874 -74.75097781 198.82367107 -58.74609375 199.00390625 C-42.94243091 198.39190166 -28.65683098 194.61003676 -17.59375 182.68359375 C-8.17403012 171.49219472 -5.19224403 159.98543026 -1.74609375 146.00390625 C8.48390625 146.00390625 18.71390625 146.00390625 29.25390625 146.00390625 C29.25390625 161.33429019 24.7923647 173.84335092 17.25390625 187.00390625 C16.77050781 187.8546875 16.28710938 188.70546875 15.7890625 189.58203125 C5.35023794 206.40518039 -11.39951946 219.29256432 -30.74609375 224.00390625 C-57.72077038 229.6252025 -87.04653869 228.24386077 -110.74609375 213.00390625 C-114.24149061 210.50500411 -117.50558524 207.82288519 -120.74609375 205.00390625 C-121.59042969 204.30394531 -122.43476562 203.60398437 -123.3046875 202.8828125 C-129.53462845 197.56318256 -134.29340682 191.86734085 -138.74609375 185.00390625 C-139.41511719 183.98941406 -140.08414063 182.97492188 -140.7734375 181.9296875 C-144.9246066 175.19698521 -147.97157786 168.35343272 -150.55859375 160.87890625 C-150.97540405 159.71029053 -150.97540405 159.71029053 -151.40063477 158.51806641 C-156.76110965 142.08927908 -157.23613976 124.870972 -157.13720703 107.74926758 C-157.12109251 104.44115092 -157.13717198 101.1342524 -157.15625 97.82617188 C-157.17546968 78.98658874 -155.02791622 61.77928403 -148.74609375 44.00390625 C-148.30330078 42.65619141 -148.30330078 42.65619141 -147.8515625 41.28125 C-143.57882109 29.28245564 -135.5204505 19.03921041 -126.74609375 10.00390625 C-126.19695313 9.39289063 -125.6478125 8.781875 -125.08203125 8.15234375 C-94.49671468 -24.84363817 -35.10223656 -25.51528148 0 0 Z " fill="#2F4EFE" transform="translate(1065.74609375,1075.99609375)"/>
<path d="M0 0 C24.63818101 -3.8525899 24.63818101 -3.8525899 35 0 C42.84110898 6.11132346 46.36128022 15.98406599 50.16064453 24.89892578 C52.7457076 30.84469327 56.11468963 36.31000783 59.48034668 41.83810425 C61.27391686 44.79972058 63.01480988 47.79196287 64.76171875 50.78125 C65.4611652 51.97280925 66.16087351 53.16421483 66.86083984 54.35546875 C68.32664452 56.85173404 69.790251 59.34927226 71.25244141 61.84765625 C73.10265703 65.00855415 74.95752953 68.16667602 76.81564331 71.32293701 C77.51510704 72.51278904 78.21299543 73.70356871 78.90921021 74.89532471 C79.87008866 76.53949646 80.83724638 78.17999368 81.8046875 79.8203125 C82.62428955 81.21660889 82.62428955 81.21660889 83.46044922 82.64111328 C84.8244147 84.73096969 86.15752774 86.33326486 88 88 C95.62279554 75.40155334 103.17501798 62.7742555 110.5 50 C116.15671585 40.13632058 121.93550875 30.35394246 127.81445312 20.62109375 C128.39130859 19.66589844 128.96816406 18.71070313 129.5625 17.7265625 C130.14443115 16.79779297 130.7263623 15.86902344 131.32592773 14.91210938 C133.08979692 11.99251738 133.08979692 11.99251738 134.37915039 8.63476562 C135.94371019 5.10351645 137.21046458 2.68535955 140 0 C145.87740935 -1.48566781 151.43307325 -1.14123199 157.4375 -0.75 C159.04342066 -0.68974761 160.64955806 -0.63500484 162.25585938 -0.5859375 C166.17595515 -0.4542286 170.08558791 -0.24764713 174 0 C172.5811515 3.84771732 170.7858407 7.20261543 168.6484375 10.69921875 C167.63100464 12.3694812 167.63100464 12.3694812 166.59301758 14.07348633 C165.85377775 15.27821853 165.11443589 16.48288813 164.375 17.6875 C163.60867646 18.94212335 162.84264903 20.1969276 162.0769043 21.4519043 C159.72386472 25.3049158 157.36312556 29.15316801 155 33 C154.64089539 33.58463013 154.28179077 34.16926025 153.9118042 34.77160645 C150.88228342 39.7025023 147.84908122 44.63112326 144.81201172 49.55737305 C140.51773929 56.52404905 136.24900046 63.50563113 132 70.5 C127.16568788 78.45450751 122.31423025 86.39824978 117.44042969 94.32861328 C116.40227495 96.01811258 115.36518553 97.70826633 114.328125 99.3984375 C113.69132812 100.43355469 113.05453125 101.46867187 112.3984375 102.53515625 C111.80901367 103.49953613 111.21958984 104.46391602 110.61230469 105.45751953 C109.29216722 107.53927478 107.90458499 109.47549299 106.4140625 111.43359375 C105.94742187 112.28050781 105.48078125 113.12742187 105 114 C106.08435954 117.48567107 107.75573023 120.40504224 109.73046875 123.45703125 C110.27848145 124.30998779 110.82649414 125.16294434 111.39111328 126.04174805 C111.9839209 126.95609619 112.57672852 127.87044434 113.1875 128.8125 C114.46054124 130.79368908 115.73264425 132.77548127 117.00390625 134.7578125 C117.66277832 135.78422852 118.32165039 136.81064453 119.00048828 137.86816406 C122.24586624 142.95140075 125.435811 148.0688908 128.625 153.1875 C133.06336844 160.30445874 137.5138671 167.41304574 142 174.5 C147.092472 182.54770226 152.15033608 190.616687 157.18969727 198.69775391 C160.18551673 203.50140211 163.18634496 208.30153489 166.21107483 213.08705139 C167.27319553 214.76785924 168.33326884 216.44996029 169.39331055 218.13208008 C170.73495396 220.26047486 172.08005839 222.38669271 173.42895508 224.51049805 C174.02861084 225.46351807 174.6282666 226.41653809 175.24609375 227.3984375 C175.77904053 228.24067871 176.3119873 229.08291992 176.86108398 229.95068359 C178 232 178 232 178 234 C173.32344411 234.34885367 168.65456817 234.60116939 163.96801758 234.76904297 C162.37911109 234.83903032 160.79109339 234.93428366 159.20532227 235.05615234 C146.45625525 236.01062795 146.45625525 236.01062795 142.44573975 232.72772217 C139.60913838 229.41646326 137.67606223 225.67413373 135.83224487 221.74432373 C134.74709671 219.46993339 133.44048331 217.37001185 132.09375 215.2421875 C131.22712804 213.78767105 130.36258664 212.33191319 129.5 210.875 C128.4733627 209.15322441 127.44597397 207.43189672 126.41796875 205.7109375 C125.87188965 204.79666992 125.32581055 203.88240234 124.76318359 202.94042969 C121.46889696 197.44660689 118.13979125 191.97386982 114.8125 186.5 C114.45872284 185.91789764 114.10494568 185.33579529 113.740448 184.73605347 C112.28831735 182.3467616 110.83613235 179.95750284 109.38368225 177.56840515 C106.65371525 173.07743734 103.92775567 168.58405067 101.203125 164.08984375 C100.03416792 162.16224842 98.86515961 160.23468417 97.69613647 158.30712891 C96.94529284 157.06881398 96.19465932 155.83037164 95.44424438 154.59179688 C94.40222874 152.87203393 93.35933745 151.15280163 92.31640625 149.43359375 C91.42610718 147.96490845 91.42610718 147.96490845 90.51782227 146.46655273 C89.38219726 144.6210936 88.20196808 142.80295212 87 141 C80.87717329 150.68820738 74.88004397 160.45024237 68.9375 170.25 C68.39725693 171.140858 68.39725693 171.140858 67.84609985 172.04971313 C65.22932424 176.3656222 62.61456702 180.68275276 60 185 C58.89283522 186.82800204 57.78558789 188.65595334 56.67785645 190.48361206 C55.9489786 191.68708869 55.22102791 192.89112735 54.49401855 194.09573364 C52.70574424 197.05525207 50.901299 200.00205645 49.05810547 202.92773438 C45.69853135 208.29326133 42.65608602 213.56018145 40.23828125 219.42578125 C35.23026718 230.77678675 35.23026718 230.77678675 30 234 C18.87541977 236.50029913 7.23040861 235.28398591 -4 234 C-1.22980509 228.23903261 1.85285456 222.87033434 5.3125 217.5 C6.38214959 215.82332426 7.45112756 214.14621992 8.51953125 212.46875 C9.08365723 211.58445312 9.6477832 210.70015625 10.22900391 209.7890625 C13.34790058 204.87725169 16.42166896 199.93729505 19.5 195 C23.9806575 187.82097714 28.47422978 180.65067097 33 173.5 C38.0929525 165.45140048 43.16182217 157.38783907 48.18530273 149.2956543 C51.16726562 144.49751331 54.16888398 139.71741286 57.26264954 134.99031067 C58.34442665 133.33536854 59.41776075 131.67491746 60.4909668 130.0144043 C61.84746592 127.91770589 63.21825189 125.83016564 64.60473633 123.75317383 C65.2108374 122.80982178 65.81693848 121.86646973 66.44140625 120.89453125 C66.98482666 120.06800049 67.52824707 119.24146973 68.08813477 118.38989258 C69.26678546 116.00388402 69.26678546 116.00388402 68.31689453 113.47265625 C67.07326886 111.13757268 65.83377264 108.82103765 64.48828125 106.54296875 C63.98586914 105.6907373 63.48345703 104.83850586 62.96582031 103.96044922 C62.42022461 103.04537598 61.87462891 102.13030273 61.3125 101.1875 C60.73725586 100.21828613 60.16201172 99.24907227 59.56933594 98.25048828 C54.78120754 90.22348335 49.84420044 82.29448967 44.86816406 74.38305664 C39.29565673 65.51171004 33.85273207 56.56532425 28.43139648 47.60131836 C24.83831932 41.66274242 21.22976782 35.73481839 17.578125 29.83203125 C17.21770615 29.24895203 16.85728729 28.6658728 16.48594666 28.06512451 C14.7783572 25.30357044 13.06760067 22.54406318 11.35180664 19.78759766 C7.33939859 13.30613672 3.57652573 6.73194307 0 0 Z " fill="#FFD73F" transform="translate(1184,1655)"/>
<path d="M0 0 C79.87712665 0 79.87712665 0 94.27734375 13.06640625 C104.34265763 23.54407936 107.51681032 36.50824497 107.25 50.69921875 C106.23901951 64.04732057 101.292077 74.59820737 91.6484375 83.79296875 C88.03865467 86.80112111 84.26172542 89.04413568 80 91 C81.30230547 95.22710406 82.91550969 98.97967272 85.01953125 102.8671875 C85.62361816 103.98891357 86.22770508 105.11063965 86.85009766 106.26635742 C87.50411551 107.4693015 88.15825232 108.6721809 88.8125 109.875 C89.48527176 111.11997792 90.15762985 112.36517946 90.82958984 113.6105957 C92.54711807 116.79129164 94.27019686 119.96894498 95.99456787 123.14593506 C97.56921148 126.0496532 99.13790999 128.95657617 100.70703125 131.86328125 C102.86742809 135.86196076 105.02873013 139.86013679 107.1953125 143.85546875 C107.89575684 145.14783447 107.89575684 145.14783447 108.61035156 146.46630859 C110.40514593 149.73868666 112.2517504 152.98094362 114.11279297 156.21606445 C115 158 115 158 115 160 C106.75 160 98.5 160 90 160 C88.91203125 157.87304688 87.8240625 155.74609375 86.703125 153.5546875 C79.53820378 139.5704859 72.36751473 125.60160169 64.75683594 111.85302734 C57 97.83584205 57 97.83584205 57 95 C45.45 95 33.9 95 22 95 C22 116.45 22 137.9 22 160 C14.74 160 7.48 160 0 160 C0 107.2 0 54.4 0 0 Z M22 18 C22 37.47 22 56.94 22 77 C31.343125 77.0928125 31.343125 77.0928125 40.875 77.1875 C42.82003418 77.21481201 44.76506836 77.24212402 46.76904297 77.27026367 C58.23405752 77.36574931 68.49771808 77.44878961 77.2421875 69.09375 C81.5578677 63.95329537 84.56035998 57.74114704 85 51 C85.0825 49.783125 85.165 48.56625 85.25 47.3125 C85.07830759 38.33298688 82.25853794 30.47276662 76 24 C68.96971642 18.19237444 61.20496902 17.69604083 52.46875 17.8046875 C51.69047852 17.80670166 50.91220703 17.80871582 50.11035156 17.81079102 C47.24017327 17.82114964 44.37007987 17.84907107 41.5 17.875 C35.065 17.91625 28.63 17.9575 22 18 Z " fill="#2F4EFE" transform="translate(2283,1280)"/>
<path d="M0 0 C10.6583021 10.28189366 13.24065523 20.69744936 14 35.125 C6.74 35.125 -0.52 35.125 -8 35.125 C-8.391875 33.145 -8.78375 31.165 -9.1875 29.125 C-11.00726163 21.37416343 -13.14503049 15.73510391 -19.9375 11.25 C-31.92077101 4.56270644 -44.87525275 5.19908253 -57.8515625 8.2109375 C-63.88406794 9.96231005 -67.42491874 12.89005959 -71 18.125 C-73.99379358 24.39359305 -74.4236308 31.9732953 -72.16015625 38.57421875 C-67.72252301 46.41851993 -59.38325909 49.6921911 -51.25 52.5625 C-50.4357959 52.85761475 -49.6215918 53.15272949 -48.78271484 53.45678711 C-42.79104142 55.59078426 -36.73376607 57.42242183 -30.625 59.1875 C-22.66368429 61.49941714 -15.35433774 64.23930565 -8 68.125 C-7.09894531 68.59679688 -6.19789063 69.06859375 -5.26953125 69.5546875 C4.29732392 74.90981066 11.1898472 81.7126391 15 92.125 C18.55802859 105.14626692 18.00717393 118.53114273 11.25 130.4375 C3.21536324 142.74546072 -8.82960321 149.58496145 -23.0234375 152.8125 C-43.6132956 156.47291922 -65.33111948 154.35473292 -82.875 142.3125 C-93.21360694 134.3688797 -97.75363507 124.62717147 -99.703125 111.921875 C-100 109.125 -100 109.125 -100 104.125 C-92.74 104.125 -85.48 104.125 -78 104.125 C-77.46375 106.620625 -76.9275 109.11625 -76.375 111.6875 C-74.53670545 119.33327341 -72.54269962 124.1710477 -65.77734375 128.5703125 C-53.23995697 135.524489 -37.64312299 135.86111676 -24 132.125 C-16.48059929 129.22502635 -11.29827722 125.47220465 -7.796875 118.125 C-5.18712838 111.5750477 -5.07454925 105.55648427 -7.8125 99.0625 C-15.53880075 85.23537707 -36.4197909 81.57133298 -50.375 77.05078125 C-51.42921143 76.70716553 -52.48342285 76.3635498 -53.56958008 76.00952148 C-55.58133718 75.35815388 -57.59661822 74.71752533 -59.6159668 74.09008789 C-72.40620743 69.98023806 -82.80930416 63.58558216 -91.4375 53.1875 C-97.27442161 41.74713365 -98.10033366 27.89298746 -94.4375 15.5625 C-90.23875597 4.95591665 -82.09317339 -3.32390684 -71.92578125 -8.4140625 C-48.70505573 -17.99366217 -19.71563828 -16.49004136 0 0 Z " fill="#2F4EFE" transform="translate(2382,2338.875)"/>
<path d="M0 0 C10.6583021 10.28189366 13.24065523 20.69744936 14 35.125 C6.74 35.125 -0.52 35.125 -8 35.125 C-8.391875 33.145 -8.78375 31.165 -9.1875 29.125 C-11.00726163 21.37416343 -13.14503049 15.73510391 -19.9375 11.25 C-31.92077101 4.56270644 -44.87525275 5.19908253 -57.8515625 8.2109375 C-63.88406794 9.96231005 -67.42491874 12.89005959 -71 18.125 C-73.99379358 24.39359305 -74.4236308 31.9732953 -72.16015625 38.57421875 C-67.72252301 46.41851993 -59.38325909 49.6921911 -51.25 52.5625 C-50.4357959 52.85761475 -49.6215918 53.15272949 -48.78271484 53.45678711 C-42.79104142 55.59078426 -36.73376607 57.42242183 -30.625 59.1875 C-22.66368429 61.49941714 -15.35433774 64.23930565 -8 68.125 C-7.09894531 68.59679688 -6.19789063 69.06859375 -5.26953125 69.5546875 C4.29732392 74.90981066 11.1898472 81.7126391 15 92.125 C18.55802859 105.14626692 18.00717393 118.53114273 11.25 130.4375 C3.21536324 142.74546072 -8.82960321 149.58496145 -23.0234375 152.8125 C-43.6132956 156.47291922 -65.33111948 154.35473292 -82.875 142.3125 C-93.21360694 134.3688797 -97.75363507 124.62717147 -99.703125 111.921875 C-100 109.125 -100 109.125 -100 104.125 C-92.74 104.125 -85.48 104.125 -78 104.125 C-77.46375 106.620625 -76.9275 109.11625 -76.375 111.6875 C-74.53670545 119.33327341 -72.54269962 124.1710477 -65.77734375 128.5703125 C-53.23995697 135.524489 -37.64312299 135.86111676 -24 132.125 C-16.48059929 129.22502635 -11.29827722 125.47220465 -7.796875 118.125 C-5.18712838 111.5750477 -5.07454925 105.55648427 -7.8125 99.0625 C-15.53880075 85.23537707 -36.4197909 81.57133298 -50.375 77.05078125 C-51.42921143 76.70716553 -52.48342285 76.3635498 -53.56958008 76.00952148 C-55.58133718 75.35815388 -57.59661822 74.71752533 -59.6159668 74.09008789 C-72.40620743 69.98023806 -82.80930416 63.58558216 -91.4375 53.1875 C-97.27442161 41.74713365 -98.10033366 27.89298746 -94.4375 15.5625 C-90.23875597 4.95591665 -82.09317339 -3.32390684 -71.92578125 -8.4140625 C-48.70505573 -17.99366217 -19.71563828 -16.49004136 0 0 Z " fill="#2F4EFE" transform="translate(2382,1813.875)"/>
<path d="M0 0 C0.87914063 0.48210938 1.75828125 0.96421875 2.6640625 1.4609375 C15.26774326 8.85648572 22.16877699 18.96584451 27.3125 32.4375 C28.36980114 37.91624229 28.68200897 43.4351569 29 49 C25.35418313 49.02887512 21.70839537 49.04675585 18.0625 49.0625 C17.02158203 49.07087891 15.98066406 49.07925781 14.90820312 49.08789062 C13.91884766 49.09111328 12.92949219 49.09433594 11.91015625 49.09765625 C10.53549194 49.10551147 10.53549194 49.10551147 9.13305664 49.11352539 C7 49 7 49 6 48 C5.70087977 45.98315961 5.43610463 43.96118817 5.1875 41.9375 C4.33946871 36.23823087 3.13819113 31.82372134 0 27 C-0.99 25.453125 -0.99 25.453125 -2 23.875 C-9.03748125 15.97402412 -20.23949621 13.73590984 -30.265625 12.78515625 C-42.51519522 12.23436622 -53.59896096 17.00208565 -62.6875 25 C-73.97738551 37.11727664 -76.43686333 54.14418301 -77 70 C-77.04125 71.10988281 -77.0825 72.21976563 -77.125 73.36328125 C-77.46412875 91.73982054 -75.79656175 111.09590408 -64 126 C-63.38382813 126.83015625 -62.76765625 127.6603125 -62.1328125 128.515625 C-55.35241499 136.41367045 -45.43004751 140.24095918 -35.28515625 141.27734375 C-25.23229565 141.63791981 -14.86558549 139.54049765 -7 133 C1.74175909 124.79674763 3.83155048 116.92647236 6 105 C13.59 105 21.18 105 29 105 C27.32425372 118.86299199 23.68857962 129.96843262 15 141 C14.53980469 141.63550781 14.07960938 142.27101563 13.60546875 142.92578125 C5.24967946 153.78589932 -8.62578718 158.79807801 -21.7734375 160.68359375 C-38.83704462 162.35690147 -56.99054148 160.18540368 -70.9375 149.4375 C-72.29959786 148.30110622 -73.65370632 147.15507347 -75 146 C-76.22589844 145.071875 -76.22589844 145.071875 -77.4765625 144.125 C-91.64332954 132.19509091 -98.02587078 112.53047414 -99.8190918 94.625 C-101.76647438 66.36824213 -100.67057612 37.32773911 -82.1875 14.25 C-62.44679026 -7.15747151 -26.00173598 -14.98241292 0 0 Z " fill="#2F4EFE" transform="translate(2376,1020)"/>
<path d="M0 0 C8.25 0 16.5 0 25 0 C29.80804572 8.22915518 34.36747328 16.5365031 38.75 25 C47.82628917 42.51928191 57.3860056 59.77138172 67 77 C67.3309668 76.35788574 67.66193359 75.71577148 68.00292969 75.05419922 C74.31543615 62.8223603 80.68806105 50.63479278 87.31274414 38.56884766 C91.6544998 30.65586728 95.92825823 22.70758893 100.1875 14.75 C100.52191101 14.12556 100.85632202 13.50112 101.2008667 12.85775757 C104.66056651 6.46017081 104.66056651 6.46017081 108 0 C116.25 0 124.5 0 133 0 C128.13001337 9.95171181 122.93197823 19.64838588 117.50878906 29.30761719 C114.61688315 34.46812502 111.74731328 39.64106978 108.875 44.8125 C108.2459375 45.94469971 107.616875 47.07689941 106.96875 48.2434082 C102.47949671 56.32540906 98.0006049 64.41311392 93.53179932 72.50643921 C92.85766186 73.72728399 92.18331388 74.94801255 91.50872803 76.16860962 C90.55717195 77.89064903 89.60670239 79.61328868 88.65625 81.3359375 C88.11806641 82.31095215 87.57988281 83.2859668 87.02539062 84.29052734 C86.73330215 84.83914932 86.44121368 85.3877713 86.14027405 85.95301819 C85.2228621 87.59992542 84.24345706 89.21222004 83.24534607 90.81150818 C78.28746145 99.13472422 76.98569493 105.56668381 77.09765625 115.17578125 C77.08536484 116.46695358 77.07307343 117.75812592 77.06040955 119.08842468 C77.02856511 122.47365645 77.03748296 125.85751562 77.05578613 129.24279785 C77.06705294 132.71604679 77.03853676 136.18896447 77.01367188 139.66210938 C76.97084628 146.441676 76.97490077 153.22034732 77 160 C69.74 160 62.48 160 55 160 C55.03778564 158.2778125 55.07557129 156.555625 55.11450195 154.78125 C55.22574037 148.98184018 55.27383749 143.18358573 55.28240681 137.383255 C55.28975431 133.87810318 55.31960319 130.3766786 55.40795898 126.87255859 C55.86623088 107.85903915 53.32969282 93.65622062 42.59042358 77.4446106 C40.22292863 73.805578 38.18166763 70.00745433 36.125 66.1875 C35.31993496 64.73834411 34.51286655 63.290298 33.703125 61.84375 C28.13491787 51.86983588 22.59185004 41.88190069 17.050354 31.89312744 C16.33201764 30.59841892 15.61354614 29.30378538 14.8949585 28.00921631 C12.64314887 23.95236445 10.3936459 19.89424877 8.14727783 15.8343811 C7.42580445 14.53121904 6.70359905 13.22846197 5.98065186 11.92611694 C4.9759901 10.11590378 3.97398741 8.30424456 2.97265625 6.4921875 C2.11039429 4.93540283 2.11039429 4.93540283 1.23071289 3.34716797 C0 1 0 1 0 0 Z " fill="#2F4EFE" transform="translate(2274,1542)"/>
<path d="M0 0 C7.26 0 14.52 0 22 0 C22 52.8 22 105.6 22 160 C14.74 160 7.48 160 0 160 C0 107.2 0 54.4 0 0 Z " fill="#2F4EFE" transform="translate(2330,2067)"/>
</svg>
